<svg width="480" height="416" viewBox="0 0 480 416" fill="none" xmlns="http://www.w3.org/2000/svg">
<path d="M55.5606 415.977C55.5606 415.977 51.3043 411.72 45.6525 411.581L9.71828 317.966C5.46199 306.825 0.368395 306.685 0.0892944 306.685V306.406H26.3713V306.685C25.9527 306.685 19.2077 306.825 19.2077 313.012C19.2077 314.384 19.4868 316.035 20.3009 317.966L54.8629 407.86L89.8203 317.966C90.6343 315.896 90.9134 314.244 90.9134 313.012C90.9134 306.825 84.308 306.685 83.8894 306.685V306.406H109.636V306.685H109.357C107.427 306.685 98.612 307.244 94.6348 317.57L56.5142 416H55.5606V415.977Z" fill="#314664"/>
<path d="M108.008 411.279C108.962 411.279 118.056 411 118.056 400.533V317.524C118.056 307.337 109.38 306.918 108.148 306.918H108.008V306.36H179.318L182.761 322.873L181.249 323.432C181.249 323.432 177.527 309.104 166.108 309.104H138.43C128.941 309.523 127.15 313.105 127.15 317.501V400.231C127.15 404.906 129.22 408.767 140.361 408.767L168.713 408.627C180.132 408.627 184.947 394.858 184.947 394.858H186.319L182.063 411.511L108.008 411.651V411.232V411.279Z" fill="#314664"/>
<path d="M221.695 411.558V411.139C222.649 411.139 231.743 410.86 231.743 400.394L231.324 318.617C231.324 312.012 228.301 310.5 221.835 310.5L213.439 310.36C203.81 310.36 195.669 311.733 191.413 324.269H190.041C191.692 317.524 193.483 310.639 195.274 303.895H196.646C196.646 303.895 200.367 306.383 205.182 306.383H266.863C271.817 306.383 275.538 303.895 275.538 303.895H276.911C278.702 310.639 279.934 317.384 281.307 324.269H279.934C275.678 311.733 267.538 310.36 257.909 310.36L249.512 310.5C243.046 310.5 240.023 312.012 240.023 318.617L240.442 400.394C240.442 410.86 249.536 411.139 250.489 411.139V411.558H221.719H221.695Z" fill="#314664"/>
<path d="M291.494 411.279C292.448 411.279 301.542 411 301.542 400.533V317.524C301.542 307.337 292.866 306.918 291.634 306.918H291.494V306.36H362.804L366.247 322.873L364.735 323.432C364.735 323.432 361.014 309.104 349.594 309.104H321.916C312.427 309.523 310.636 313.105 310.636 317.501V400.231C310.636 404.906 312.706 408.767 323.847 408.767L352.199 408.627C363.619 408.627 368.433 394.858 368.433 394.858H369.805L365.549 411.511L291.494 411.651V411.232V411.279Z" fill="#314664"/>
<path d="M454.466 331.456C454.466 320.036 447.861 309.011 435.185 309.011H409.438C398.297 309.011 396.087 312.872 396.087 317.408V356.505H430.649C446.744 356.505 454.466 343.852 454.466 331.456ZM448.954 396.3C435.324 378.135 424.718 359.971 407.112 359.971H406.972C401.32 359.971 396.087 360.785 396.087 366.716V400.44C396.087 410.907 405.181 411.186 406.135 411.186V411.604H377.504V411.186H377.643C378.481 411.186 387.272 410.907 387.551 400.998V316.896C387.272 306.988 378.457 306.709 377.643 306.709H377.504V306.29H438.208C456.234 306.29 465.188 318.408 465.188 331.2C465.188 345.108 454.443 359.691 432.975 359.971H426.37C453.908 370.437 463.258 411.325 479.771 411.325H479.911V411.604L469.724 411.744C460.629 411.744 459.257 410.232 448.93 396.323" fill="#314664"/>
<path d="M188.948 349.923C188.18 350.784 187.459 351.691 186.645 352.528C184.063 355.249 181.109 357.552 177.83 359.389C176.109 360.343 174.295 361.157 172.457 361.878C170.457 362.669 168.41 363.413 166.317 363.948C162.317 364.994 158.2 365.297 154.06 365.204C146.478 364.994 139.151 363.297 131.848 361.436C126.173 359.994 120.475 358.552 114.753 357.296C109.799 356.203 104.752 355.807 99.6818 356.18C94.8905 356.552 90.2621 357.668 85.936 359.808C84.4475 360.552 83.0985 361.552 81.6798 362.436C81.4937 362.552 81.2844 362.692 80.9122 362.924C81.0285 362.576 81.075 362.436 81.1448 362.32C82.9125 359.436 85.3313 357.18 88.0991 355.226C91.1692 353.063 94.6114 351.76 98.1467 350.691C100.821 349.877 103.589 349.504 106.38 349.318C114.451 348.76 122.289 350.225 130.081 352.04C136.104 353.458 142.128 354.97 148.176 356.296C153.827 357.529 159.572 358.04 165.364 357.505C168.573 357.203 171.736 356.645 174.83 355.691C176.295 355.249 177.784 354.9 179.179 354.296C181.784 353.179 184.319 351.9 186.878 350.691C187.506 350.388 188.11 350.039 188.738 349.714C188.808 349.783 188.855 349.853 188.924 349.923" fill="#F5F5F5"/>
<path d="M363.153 349.923C362.386 350.784 361.665 351.691 360.851 352.528C358.269 355.249 355.315 357.552 352.036 359.389C350.315 360.343 348.5 361.157 346.663 361.878C344.663 362.669 342.616 363.413 340.523 363.948C336.522 364.994 332.406 365.297 328.266 365.204C320.683 364.994 313.357 363.297 306.054 361.436C300.379 359.994 294.68 358.552 288.959 357.296C284.005 356.203 278.958 355.807 273.887 356.18C269.096 356.552 264.468 357.668 260.142 359.808C258.653 360.552 257.304 361.552 255.885 362.436C255.699 362.552 255.49 362.692 255.118 362.924C255.234 362.576 255.281 362.436 255.35 362.32C257.118 359.436 259.537 357.18 262.305 355.226C265.375 353.063 268.817 351.76 272.352 350.691C275.027 349.877 277.795 349.504 280.586 349.318C288.656 348.76 296.495 350.225 304.286 352.04C310.31 353.458 316.334 354.97 322.381 356.296C328.033 357.529 333.778 358.04 339.569 357.505C342.779 357.203 345.942 356.645 349.035 355.691C350.501 355.249 351.989 354.9 353.385 354.296C355.99 353.179 358.525 351.9 361.083 350.691C361.711 350.388 362.316 350.039 362.944 349.714C363.014 349.783 363.06 349.853 363.13 349.923" fill="#F5F5F5"/>
<path d="M361.223 121.2C361.223 188.137 306.961 242.399 240.023 242.399C173.086 242.399 118.824 188.137 118.824 121.2C118.824 54.2619 173.062 0 240 0C306.938 0 361.2 54.2619 361.2 121.2" fill="#F5F5F5"/>
<path d="M319.474 106.686C315.846 110.873 311.729 111.78 306.612 110.152C301.193 108.431 295.797 106.617 290.238 105.477C280.865 103.546 272.166 105.663 265.375 112.501C258.7 119.199 252.653 126.526 246.35 133.573C242.489 137.899 238.767 142.388 234.767 146.598C228.51 153.18 221.323 158.436 212.416 161.181C217.416 166.088 222.533 167.298 227.65 163.321C234.976 157.622 241.884 151.273 248.396 144.621C254.932 137.946 260.607 130.456 266.863 123.502C277.679 111.454 292.704 111.826 306.659 120.618C303.589 124.107 299.844 125.223 295.471 124.549C294.099 124.339 292.773 123.851 291.424 123.572C285.191 122.2 279.539 123.223 275.004 127.968C270.817 132.364 266.794 136.899 262.793 141.434C258.77 145.97 255.025 150.761 250.838 155.157C246.768 159.436 242.326 163.367 238.349 168.205C241.442 167.112 244.605 166.205 247.582 164.856C255.653 161.158 262.165 155.366 268.212 149.017C272.399 144.621 276.446 140.085 280.679 135.759C284.331 132.015 288.471 132.015 292.68 135.806C280.074 148.458 269.585 163.297 253.281 171.926C236.953 180.578 221.323 178.694 206.461 168.414C194.739 160.297 185.831 149.482 177.854 137.853C171.55 128.666 165.294 119.455 155.549 113.385C154.874 112.966 154.456 111.198 154.735 110.315C160.084 93.4988 177.156 85.6607 193.344 92.5684C202.88 96.6619 210.764 103.105 218.3 110.547C216.462 112.733 214.765 114.71 212.741 117.106C211.206 115.734 209.95 114.338 208.438 113.315C201.996 108.919 195.856 103.872 188.925 100.476C179.551 95.9177 170.341 99.7553 165.666 108.268C172.016 116.176 178.086 123.851 184.296 131.457C188.785 136.969 195.228 138.667 202.461 136.434C208.462 134.573 213.137 130.759 217.114 126.061C224.673 117.222 232.139 108.291 239.674 99.4529C252.885 83.9628 269.515 76.4504 290.006 78.4273C304.844 79.8694 318.497 85.0327 331.429 92.2428C331.731 92.4056 331.917 92.7778 332.15 93.0336C328.475 97.2899 324.335 98.1039 318.52 95.5223C307.915 90.8008 297.03 87.3818 285.307 87.0562C272.585 86.7073 261.095 90.1496 252.211 99.4529C243.582 108.477 235.651 118.199 227.417 127.596C225.743 129.503 224.138 131.433 222.417 133.294C215.393 140.946 206.927 145.784 196.297 146.249C198.391 151.296 203.182 153.971 208.369 152.947C214.509 151.761 219.928 148.807 224.161 144.388C231.325 136.922 238 129.014 244.908 121.293C248.954 116.78 252.862 112.129 257.141 107.826C266.724 98.197 278.26 94.3826 291.773 96.6852C301.565 98.3598 310.729 101.639 319.428 106.593" fill="#A1B4D1"/>
</svg>
