<svg width="291" height="252" viewBox="0 0 291 252" fill="none" xmlns="http://www.w3.org/2000/svg">
<path d="M34.0131 251.443C34.0131 251.443 31.4403 248.87 28.024 248.786L6.30304 192.199C3.73027 185.465 0.651373 185.38 0.482666 185.38V185.212H16.3692V185.38C16.1161 185.38 12.0391 185.465 12.0391 189.204C12.0391 190.034 12.2078 191.032 12.6998 192.199L33.5913 246.536L54.7218 192.199C55.2139 190.948 55.3826 189.95 55.3826 189.204C55.3826 185.465 51.3899 185.38 51.1368 185.38V185.212H66.7V185.38H66.5313C65.3644 185.38 60.0361 185.718 57.632 191.96L34.5895 251.457H34.0131V251.443Z" fill="#314664"/>
<path d="M65.7156 248.603C66.292 248.603 71.789 248.434 71.789 242.108V191.932C71.789 185.774 66.545 185.521 65.7999 185.521H65.7156V185.184H108.82L110.901 195.165L109.987 195.503C109.987 195.503 107.738 186.843 100.835 186.843H84.1046C78.3686 187.096 77.286 189.261 77.286 191.918V241.925C77.286 244.751 78.5373 247.085 85.2715 247.085L102.409 247C109.312 247 112.222 238.678 112.222 238.678H113.052L110.479 248.744L65.7156 248.828V248.575V248.603Z" fill="#314664"/>
<path d="M134.435 248.772V248.519C135.012 248.519 140.509 248.35 140.509 242.024L140.256 192.593C140.256 188.6 138.428 187.686 134.52 187.686L129.445 187.602C123.624 187.602 118.704 188.431 116.131 196.009H115.301C116.299 191.932 117.382 187.77 118.465 183.693H119.294C119.294 183.693 121.543 185.198 124.454 185.198H161.738C164.732 185.198 166.982 183.693 166.982 183.693H167.811C168.894 187.77 169.639 191.848 170.468 196.009H169.639C167.066 188.431 162.145 187.602 156.325 187.602L151.25 187.686C147.341 187.686 145.514 188.6 145.514 192.593L145.767 242.024C145.767 248.35 151.264 248.519 151.84 248.519V248.772H134.449H134.435Z" fill="#314664"/>
<path d="M176.627 248.603C177.203 248.603 182.7 248.434 182.7 242.108V191.932C182.7 185.774 177.456 185.521 176.711 185.521H176.627V185.184H219.731L221.812 195.165L220.898 195.503C220.898 195.503 218.649 186.843 211.746 186.843H195.016C189.28 187.096 188.197 189.261 188.197 191.918V241.925C188.197 244.751 189.448 247.085 196.183 247.085L213.32 247C220.223 247 223.133 238.678 223.133 238.678H223.963L221.39 248.744L176.627 248.828V248.575V248.603Z" fill="#314664"/>
<path d="M275.137 200.353C275.137 193.45 271.144 186.786 263.482 186.786H247.919C241.185 186.786 239.849 189.12 239.849 191.861V215.494H260.741C270.469 215.494 275.137 207.846 275.137 200.353ZM271.805 239.549C263.567 228.569 257.156 217.589 246.513 217.589H246.429C243.013 217.589 239.849 218.081 239.849 221.666V242.052C239.849 248.378 245.346 248.547 245.923 248.547V248.8H228.616V248.547H228.701C229.207 248.547 234.521 248.378 234.69 242.389V191.552C234.521 185.563 229.193 185.394 228.701 185.394H228.616V185.141H265.31C276.206 185.141 281.618 192.466 281.618 200.198C281.618 208.606 275.123 217.421 262.147 217.589H258.154C274.8 223.916 280.451 248.631 290.433 248.631H290.517V248.8L284.36 248.884C278.863 248.884 278.033 247.97 271.791 239.563" fill="#314664"/>
<path d="M114.641 211.516C114.177 212.036 113.741 212.584 113.249 213.09C111.688 214.735 109.903 216.127 107.92 217.238C106.88 217.814 105.784 218.306 104.673 218.742C103.464 219.22 102.227 219.67 100.961 219.993C98.5432 220.626 96.0548 220.809 93.5523 220.753C88.9691 220.626 84.5406 219.6 80.1261 218.475C76.6957 217.603 73.2513 216.732 69.7928 215.973C66.7983 215.312 63.7475 215.073 60.6827 215.298C57.7865 215.523 54.9888 216.197 52.3739 217.491C51.4741 217.941 50.6587 218.545 49.8011 219.08C49.6886 219.15 49.5621 219.234 49.3372 219.375C49.4075 219.164 49.4356 219.08 49.4777 219.009C50.5462 217.266 52.0083 215.902 53.6814 214.721C55.5371 213.414 57.6178 212.627 59.7548 211.98C61.3716 211.488 63.0446 211.263 64.7316 211.15C69.6101 210.813 74.3479 211.699 79.0576 212.795C82.6989 213.653 86.3401 214.567 89.9954 215.368C93.4117 216.113 96.8843 216.422 100.385 216.099C102.325 215.916 104.237 215.579 106.107 215.002C106.993 214.735 107.892 214.524 108.736 214.159C110.311 213.484 111.843 212.711 113.389 211.98C113.769 211.797 114.135 211.586 114.514 211.389C114.556 211.432 114.584 211.474 114.627 211.516" fill="#F5F5F5"/>
<path d="M219.942 211.516C219.478 212.036 219.042 212.584 218.55 213.09C216.989 214.735 215.204 216.127 213.222 217.238C212.181 217.814 211.085 218.306 209.974 218.742C208.765 219.22 207.528 219.67 206.262 219.993C203.844 220.626 201.356 220.809 198.853 220.753C194.27 220.626 189.842 219.6 185.427 218.475C181.997 217.603 178.552 216.732 175.094 215.973C172.099 215.312 169.049 215.073 165.984 215.298C163.088 215.523 160.29 216.197 157.675 217.491C156.775 217.941 155.96 218.545 155.102 219.08C154.99 219.15 154.863 219.234 154.638 219.375C154.708 219.164 154.737 219.08 154.779 219.009C155.847 217.266 157.309 215.902 158.982 214.721C160.838 213.414 162.919 212.627 165.056 211.98C166.673 211.488 168.346 211.263 170.033 211.15C174.911 210.813 179.649 211.699 184.359 212.795C188 213.653 191.641 214.567 195.296 215.368C198.713 216.113 202.185 216.422 205.686 216.099C207.626 215.916 209.538 215.579 211.408 215.002C212.294 214.735 213.193 214.524 214.037 214.159C215.612 213.484 217.144 212.711 218.69 211.98C219.07 211.797 219.436 211.586 219.815 211.389C219.857 211.432 219.885 211.474 219.928 211.516" fill="#F5F5F5"/>
<path d="M218.775 73.2608C218.775 113.722 185.976 146.522 145.514 146.522C105.053 146.522 72.2534 113.722 72.2534 73.2608C72.2534 32.7994 105.039 0 145.5 0C185.962 0 218.761 32.7994 218.761 73.2608" fill="#F5F5F5"/>
<path d="M193.539 64.488C191.346 67.0186 188.858 67.5669 185.765 66.5828C182.489 65.5424 179.227 64.4458 175.867 63.7569C170.202 62.59 164.943 63.8694 160.838 68.0027C156.803 72.0517 153.148 76.4802 149.338 80.7401C147.004 83.355 144.755 86.0684 142.337 88.613C138.555 92.5917 134.211 95.769 128.826 97.4279C131.849 100.394 134.942 101.125 138.035 98.7214C142.463 95.2769 146.639 91.4389 150.575 87.418C154.526 83.3831 157.956 78.8562 161.738 74.6526C168.275 67.3701 177.357 67.595 185.793 72.9093C183.937 75.0181 181.674 75.6929 179.03 75.2852C178.201 75.1587 177.4 74.8634 176.584 74.6947C172.816 73.8653 169.4 74.4839 166.659 77.3519C164.128 80.009 161.696 82.7505 159.278 85.492C156.846 88.2334 154.582 91.1296 152.051 93.7867C149.591 96.3735 146.906 98.7495 144.502 101.674C146.372 101.013 148.284 100.465 150.083 99.6492C154.962 97.4139 158.898 93.9132 162.553 90.0751C165.084 87.418 167.53 84.6765 170.089 82.0616C172.296 79.7981 174.799 79.7981 177.343 82.0897C169.724 89.7377 163.383 98.7073 153.528 103.923C143.658 109.153 134.211 108.014 125.227 101.8C118.141 96.8937 112.757 90.3563 107.935 83.3269C104.125 77.7736 100.343 72.2063 94.4523 68.5369C94.0446 68.2839 93.7915 67.2154 93.9602 66.6812C97.1938 56.5166 107.513 51.7788 117.298 55.9542C123.062 58.4286 127.828 62.3229 132.383 66.8218C131.272 68.1433 130.246 69.3383 129.023 70.7864C128.095 69.9569 127.336 69.1134 126.422 68.4948C122.528 65.8376 118.816 62.7869 114.627 60.7343C108.961 57.9787 103.394 60.2984 100.568 65.444C104.406 70.224 108.075 74.8634 111.829 79.4607C114.542 82.7926 118.437 83.8189 122.809 82.4693C126.436 81.3446 129.262 79.0389 131.666 76.199C136.235 70.8567 140.748 65.458 145.303 60.1157C153.289 50.7525 163.341 46.2114 175.727 47.4065C184.696 48.2781 192.949 51.3992 200.766 55.7574C200.948 55.8558 201.061 56.0808 201.201 56.2354C198.98 58.8082 196.478 59.3003 192.963 57.7397C186.552 54.8858 179.972 52.8191 172.887 52.6223C165.197 52.4114 158.251 54.4921 152.881 60.1157C147.665 65.5705 142.871 71.4471 137.894 77.1269C136.882 78.2798 135.912 79.4466 134.872 80.5714C130.626 85.1967 125.508 88.121 119.083 88.4021C120.349 91.4529 123.245 93.0697 126.38 92.4511C130.092 91.7341 133.367 89.9486 135.926 87.2774C140.256 82.7645 144.291 77.9845 148.466 73.317C150.913 70.5895 153.275 67.7778 155.861 65.1769C161.654 59.3565 168.627 57.0508 176.795 58.4427C182.714 59.4549 188.253 61.4372 193.511 64.4318" fill="#A1B4D1"/>
</svg>
