<svg width="152" height="152" viewBox="0 0 152 152" fill="none" xmlns="http://www.w3.org/2000/svg">
<path d="M52.1387 88.9622H124.793C125.276 88.9622 125.78 88.9623 126.251 89.0111V88.9622C138.117 88.9622 147.774 79.3755 147.774 67.5914C147.774 55.8033 138.117 46.2167 126.251 46.2167C124.567 46.2167 122.818 46.4363 121.06 46.8676C120.486 47.0098 119.876 46.9044 119.38 46.5785C118.888 46.253 118.552 45.7363 118.462 45.1585C116.061 29.9442 103.06 18.9049 87.5642 18.9049C70.2939 18.9049 56.2401 32.8578 56.2401 50.013C56.2401 50.8553 56.3056 51.6893 56.3755 52.5112C56.4204 53.1379 56.1909 53.7524 55.7403 54.1878C55.2937 54.6231 54.6628 54.8348 54.0441 54.7697C53.4172 54.7046 52.7821 54.6638 52.1388 54.6638C42.6166 54.6638 34.8686 62.3585 34.8686 71.8109C34.8686 81.2674 42.6165 88.9622 52.1387 88.9622ZM52.0201 50.4686C52.0201 50.3139 52.0168 50.1637 52.0168 50.013C52.0168 30.5465 67.9677 14.7096 87.5653 14.7096C104.418 14.7096 118.664 26.2048 122.233 42.3509C123.585 42.1312 124.933 42.0171 126.252 42.0171C140.45 42.0171 152 53.4919 152 67.5912C152 81.6906 140.45 93.1612 126.24 93.1612H52.1398C40.2862 93.1612 30.6452 83.5827 30.6452 71.8109C30.6452 60.0798 40.2198 50.5296 52.0201 50.4686Z" fill="white"/>
<path d="M25.7783 27.7815C27.1033 27.7815 28.4489 27.8931 29.8027 28.1168C33.3798 11.6971 47.6391 0 64.5117 0C71.8588 0 78.9106 2.24344 84.9081 6.48186C85.8598 7.16067 86.0936 8.48938 85.4249 9.45379C84.7521 10.4223 83.4353 10.6541 82.4754 9.97946C77.1958 6.24187 70.985 4.26741 64.5117 4.26741C48.997 4.26741 35.9806 15.5009 33.5767 30.9727C33.4822 31.5688 33.146 32.0903 32.6537 32.4214C32.1655 32.7525 31.5584 32.8602 30.9758 32.7155C29.2119 32.2726 27.4685 32.0491 25.7783 32.0491C13.8982 32.0491 4.22924 41.8049 4.22924 53.7916C4.22924 64.9713 12.5322 74.2677 23.5385 75.4143C24.6995 75.5384 25.5446 76.5897 25.4256 77.7611C25.3107 78.8579 24.3918 79.6774 23.3211 79.6774C23.2515 79.6774 23.1734 79.6742 23.1039 79.6643C9.93156 78.2901 0 67.1683 0 53.7908C0 39.4489 11.5641 27.7815 25.7783 27.7815Z" fill="white"/>
<path d="M50.8725 110.323C49.6282 110.326 48.6239 111.33 48.6209 112.574V116.04H45.155C43.9137 116.04 42.9062 117.048 42.9033 118.292C42.9062 119.536 43.9137 120.543 45.155 120.543H48.6209L48.6179 124.007C48.6179 125.248 49.6252 126.255 50.8695 126.258C51.4931 126.258 52.0598 126.003 52.4645 125.598C52.8723 125.191 53.1241 124.627 53.1211 124.007L53.1241 120.543L56.5871 120.541C57.2107 120.541 57.7714 120.291 58.1791 119.884C58.5868 119.476 58.8387 118.912 58.8387 118.289C58.8357 117.045 57.8284 116.037 56.5871 116.037L53.1241 116.04V112.574C53.1241 111.333 52.1167 110.326 50.8725 110.323Z" fill="white"/>
<path d="M90.0982 110.323C88.854 110.326 87.8496 111.33 87.8466 112.574V116.04H84.3807C83.1395 116.04 82.132 117.048 82.129 118.292C82.132 119.536 83.1395 120.543 84.3807 120.543H87.8466L87.8436 124.007C87.8436 125.248 88.851 126.255 90.0952 126.258C90.7189 126.258 91.2855 126.003 91.6902 125.598C92.098 125.191 92.3499 124.627 92.3469 124.007L92.3499 120.543L95.8129 120.541C96.4365 120.541 96.9971 120.291 97.4049 119.884C97.8126 119.476 98.0645 118.912 98.0645 118.289C98.0615 117.045 97.0541 116.037 95.8129 116.037L92.3499 116.04V112.574C92.3499 111.333 91.3425 110.326 90.0982 110.323Z" fill="white"/>
<path d="M129.324 110.323C128.08 110.326 127.075 111.33 127.072 112.574V116.04H123.606C122.365 116.04 121.358 117.048 121.355 118.292C121.358 119.536 122.365 120.543 123.606 120.543H127.072L127.069 124.007C127.069 125.248 128.077 126.255 129.321 126.258C129.945 126.258 130.511 126.003 130.916 125.598C131.324 125.191 131.576 124.627 131.573 124.007L131.576 120.543L135.039 120.541C135.662 120.541 136.223 120.291 136.631 119.884C137.038 119.476 137.29 118.912 137.29 118.289C137.287 117.045 136.28 116.037 135.039 116.037L131.576 116.04V112.574C131.576 111.333 130.568 110.326 129.324 110.323Z" fill="white"/>
<path d="M31.2596 136.064C30.0153 136.067 29.0109 137.072 29.0079 138.316V141.782H25.542C24.3008 141.782 23.2933 142.79 23.2903 144.034C23.2933 145.278 24.3008 146.285 25.542 146.285H29.0079L29.0049 149.748C29.0049 150.99 30.0123 151.997 31.2566 152C31.8802 152 32.4468 151.745 32.8516 151.34C33.2593 150.933 33.5112 150.369 33.5082 149.748L33.5112 146.285L36.9742 146.282C37.5978 146.282 38.1584 146.033 38.5662 145.626C38.9739 145.218 39.2258 144.654 39.2258 144.031C39.2228 142.786 38.2154 141.779 36.9742 141.779L33.5112 141.782V138.316C33.5112 137.075 32.5038 136.067 31.2596 136.064Z" fill="white"/>
<path d="M70.4854 136.064C69.2411 136.067 68.2367 137.072 68.2337 138.316V141.782H64.7679C63.5266 141.782 62.5191 142.79 62.5161 144.034C62.5191 145.278 63.5266 146.285 64.7679 146.285H68.2337L68.2307 149.748C68.2307 150.99 69.2381 151.997 70.4824 152C71.106 152 71.6726 151.745 72.0774 151.34C72.4851 150.933 72.737 150.369 72.734 149.748L72.737 146.285L76.2 146.282C76.8236 146.282 77.3842 146.033 77.792 145.626C78.1997 145.218 78.4516 144.654 78.4516 144.031C78.4486 142.786 77.4412 141.779 76.2 141.779L72.737 141.782V138.316C72.737 137.075 71.7296 136.067 70.4854 136.064Z" fill="white"/>
<path d="M109.711 136.064C108.467 136.067 107.463 137.072 107.46 138.316V141.782H103.994C102.752 141.782 101.745 142.79 101.742 144.034C101.745 145.278 102.752 146.285 103.994 146.285H107.46L107.457 149.748C107.457 150.99 108.464 151.997 109.708 152C110.332 152 110.899 151.745 111.303 151.34C111.711 150.933 111.963 150.369 111.96 149.748L111.963 146.285L115.426 146.282C116.05 146.282 116.61 146.033 117.018 145.626C117.426 145.218 117.677 144.654 117.677 144.031C117.675 142.786 116.667 141.779 115.426 141.779L111.963 141.782V138.316C111.963 137.075 110.956 136.067 109.711 136.064Z" fill="white"/>
</svg>
