<svg width="1508" height="380" viewBox="0 0 1508 380" fill="none" xmlns="http://www.w3.org/2000/svg">
<path d="M241.522 352.909C209.58 341.326 172.514 317.393 128.442 279.93C98.1098 254.101 69.8125 226.354 42.4396 199.523C34.5343 191.772 26.368 183.761 18.3913 176.043L19.5689 174.823C27.5456 182.54 35.7119 190.552 43.6172 198.302C70.9625 225.111 99.2427 252.84 129.53 278.63C176.109 318.234 214.791 342.646 247.805 353.268C286.308 365.393 307.339 357.705 324.324 347.577C331.86 342.913 338.86 337.533 345.617 332.338C354.755 325.315 363.385 318.677 372.645 314.259C405.982 298.005 461.761 290.341 502.854 288.589L502.926 290.286C462.013 292.033 406.493 299.637 373.384 315.784C364.281 320.128 355.715 326.718 346.646 333.683C339.843 338.909 332.821 344.317 325.196 349.031C307.853 359.361 286.419 367.212 247.28 354.879C245.368 354.269 243.439 353.605 241.491 352.898L241.522 352.909Z" fill="#F5F5F5"/>
<path d="M292.399 250.176C255.742 236.882 219.576 217.792 189.944 196.045L190.95 194.679C222.079 217.526 260.473 237.436 299.019 250.716C337.97 264.154 375.893 270.296 408.689 268.475C443.934 267.032 480.509 250.803 512.78 236.474C524.414 231.198 535.482 225.978 545.258 221.379C563.058 212.993 577.113 206.367 584.883 203.933C587.142 203.164 589.787 202.179 592.591 201.146C604.698 196.657 621.279 190.52 640.485 188.357C669.872 185.086 696.083 192.174 720.61 210.018L719.616 211.388C695.445 193.803 669.622 186.821 640.68 190.041C621.687 192.173 605.213 198.278 593.188 202.737C590.379 203.781 587.724 204.762 585.422 205.551C577.734 207.955 563.722 214.562 545.99 222.925C536.21 227.534 525.131 232.751 513.483 238.033C481.073 252.418 444.337 268.731 408.782 270.18C375.781 272.01 337.634 265.834 298.48 252.334C296.457 251.636 294.428 250.923 292.416 250.194L292.399 250.176Z" fill="#F5F5F5"/>
<path d="M298.554 256.77C287.9 252.907 277.721 248.777 267.813 244.294C238.895 231.235 211.674 214.903 184.589 194.34L185.611 192.992C236.44 231.566 287.608 255.314 356.717 272.41C385.388 279.904 416.429 279.983 451.616 272.651C481.805 266.221 512.332 255.101 539.89 240.497C543.507 238.597 547.135 236.665 550.775 234.736C600.662 208.245 652.261 180.857 701.809 203.058L701.116 204.608C652.31 182.748 601.104 209.935 551.571 236.234C547.932 238.162 544.303 240.095 540.686 241.995C512.992 256.68 482.316 267.852 451.964 274.306C416.508 281.695 385.22 281.609 356.3 274.049C335.078 268.795 316.169 263.147 298.568 256.764L298.554 256.77Z" fill="#F5F5F5"/>
<path d="M282.308 240.412C252.429 229.576 222.548 214.958 194.666 197.473L195.567 196.034C273.445 244.879 351.439 262.578 394.199 258.454C417.028 256.824 444.712 246.711 468.788 237.033C492.397 227.47 514.803 216.973 525.623 211.26C537.408 204.782 559.402 194.538 582.582 187.037C603.599 180.208 633.715 172.768 657.863 176.132C699.595 181.901 715.75 200.408 717.454 202.508L716.191 203.638L716.139 203.584C714.472 201.545 698.718 183.504 657.628 177.825C633.797 174.505 603.939 181.884 583.097 188.658C560.033 196.131 538.143 206.317 526.415 212.768C515.538 218.508 493.075 229.032 469.41 238.622C445.208 248.35 417.375 258.514 394.327 260.161C371.196 262.393 339.967 258.192 306.4 248.342C298.395 245.997 290.346 243.35 282.29 240.429L282.308 240.412Z" fill="#F5F5F5"/>
<path d="M266.36 228.95C241.374 219.889 218.31 208.502 199.94 198.947L200.723 197.441C224.251 209.672 255.487 224.936 288.557 234.392C322.167 244.056 355.512 247.163 390.501 243.873C426.93 239.848 455.227 227.196 480.383 214.116C490.449 208.817 500.016 203.42 509.258 198.201C523.177 190.351 536.326 182.922 548.463 177.437C587.412 159.663 639.999 144.131 701.489 182.138L700.598 183.581C639.795 146.002 587.723 161.388 549.159 178.982C537.08 184.44 523.963 191.845 510.083 199.685C500.827 204.911 491.259 210.308 481.151 215.627C455.848 228.784 427.384 241.506 390.658 245.565C355.435 248.878 321.894 245.758 288.08 236.033C280.726 233.923 273.459 231.536 266.346 228.957L266.36 228.95Z" fill="#F5F5F5"/>
<path d="M241.254 214.629C230.108 210.587 218.887 205.996 207.596 200.847L208.3 199.3C252.724 219.547 296.113 231.24 337.249 234.044C371.604 236.391 403.417 232.056 426.809 221.845C441.615 215.111 456.307 205.16 471.854 194.617C480.905 188.487 490.254 182.157 499.944 176.259C531.107 156.977 558.422 146.838 583.449 145.293C611.363 143.337 631.207 144.416 647.777 148.801C662.974 152.819 675.145 159.497 691.024 169.677L690.116 171.102C659.207 151.311 639.791 143.037 583.57 146.984C558.818 148.523 531.764 158.567 500.83 177.707C491.168 183.591 481.834 189.915 472.801 196.027C457.183 206.603 442.44 216.596 427.491 223.396C403.831 233.723 371.743 238.101 337.12 235.74C306.245 233.635 274.118 226.548 241.254 214.629Z" fill="#F5F5F5"/>
<path d="M216.378 202.716L216.924 201.112C314.569 234.283 360.082 227.827 398.328 218.368C414.885 213.443 429.015 201.118 443.975 188.075C446.454 185.915 449.015 183.691 451.597 181.474C469.022 166.373 490.37 149.838 516.599 141.711C566.358 125.51 584.085 125.134 604.988 130.451L604.572 132.09C583.991 126.866 566.474 127.247 517.103 143.328C491.159 151.357 469.987 167.766 452.695 182.761C450.113 184.978 447.552 187.203 445.077 189.352C429.976 202.522 415.712 214.952 398.769 219.998C380.655 224.477 358.156 228.824 328.22 227.237C296.621 225.557 260.031 217.539 216.372 202.701L216.378 202.716Z" fill="#F5F5F5"/>
<path d="M333.003 181.686L332.307 180.141C353.348 170.595 370.118 162.108 384.901 154.619C403.864 145.019 420.23 136.729 439.216 129.449C474.33 116.01 516.434 105.129 539.325 103.591C563.462 101.984 569.003 104.16 569.052 104.189L568.401 105.755C568.401 105.755 562.549 103.751 539.432 105.29C516.686 106.821 474.791 117.647 439.813 131.041C420.908 138.291 404.574 146.557 385.654 156.137C370.857 163.633 354.073 172.126 333.003 181.686Z" fill="#F5F5F5"/>
<path d="M367.349 169.153L366.71 167.582C379.308 162.489 390.861 157.765 401.066 153.583C436.254 139.186 461.676 128.775 488.503 120.403C523.151 109.817 565.428 109.016 585.388 111.05L585.217 112.731C565.395 110.71 523.413 111.512 489.007 122.02C462.247 130.369 436.855 140.767 401.706 155.154C391.504 159.325 379.948 164.061 367.349 169.153Z" fill="#F5F5F5"/>
<path d="M426.846 149.963L426.317 148.349C436.963 144.849 446.202 141.762 454.346 139.05C490.797 126.889 505.887 121.859 528.748 118.995C555.979 115.558 572.304 115.717 609.728 123.493L609.385 125.158C572.192 117.431 555.977 117.264 528.955 120.682C506.255 123.522 491.216 128.546 454.875 140.664C446.727 143.387 437.492 146.463 426.831 149.97L426.846 149.963Z" fill="#F5F5F5"/>
<path d="M753.467 223.949C742.258 219.884 730.603 213.583 717.347 204.733L718.286 203.319C751.981 225.793 775.216 231.706 807.109 225.906C818.501 223.683 829.532 217.975 841.228 211.94C862.923 200.722 887.505 188.015 925.467 189.703C978.976 191.6 996.355 203.07 999.284 205.354L999.357 205.416L998.929 206.007L998.598 206.919C998.462 206.869 998.379 206.804 998.251 206.698C995.384 204.473 978.389 193.283 925.398 191.397C887.891 189.732 863.512 202.335 842.01 213.444C830.21 219.537 819.075 225.302 807.428 227.575C787.618 231.177 771.11 230.347 753.478 223.953L753.467 223.949Z" fill="#F5F5F5"/>
<path d="M748.903 219.342C738.008 215.391 726.668 209.56 714.485 201.739L715.403 200.318C746.186 220.1 771.566 227.028 797.69 222.786C816.648 219.574 828.68 211.858 841.419 203.699C856.524 194.016 872.149 184.011 900.547 181.08C945.5 176.105 975.056 182.011 996.373 200.208L995.278 201.495C974.344 183.614 945.19 177.842 900.732 182.76C872.726 185.655 857.284 195.548 842.337 205.123C829.455 213.384 817.276 221.177 797.974 224.454C781.788 227.084 765.896 225.505 748.913 219.346L748.903 219.342Z" fill="#F5F5F5"/>
<path d="M742.19 213.731C732.185 210.102 721.873 205.13 711.335 198.855L712.205 197.404C752.959 221.69 788.869 225.929 818.919 209.978C832.491 202.856 842.139 196.812 850.647 191.493C868.541 180.296 879.35 173.535 905.041 170.323C941.439 165.86 965.86 167.817 990.607 190.874L989.446 192.113C965.188 169.506 941.136 167.611 905.247 172.01C879.927 175.179 869.24 181.865 851.547 192.934C843.006 198.277 833.333 204.323 819.712 211.486C804.504 219.556 787.512 222.545 769.227 220.371C760.512 219.332 751.489 217.115 742.196 213.745L742.19 213.731Z" fill="#F5F5F5"/>
<path d="M733.625 207.863C726.69 205.348 719.228 202.096 710.974 197.953L711.736 196.44C746.476 213.875 767.051 215.421 792.867 212.159C807.647 210.169 820.119 200.621 833.318 190.507C842.2 183.7 851.391 176.661 861.709 171.678C892.437 156.636 923.26 157.347 935.086 158.34C956.39 160.198 970.496 167.815 978.586 173.879L977.574 175.231C969.664 169.292 955.853 161.841 934.95 160.022C923.265 159.032 892.805 158.334 862.452 173.192C852.287 178.112 843.164 185.093 834.351 191.842C820.958 202.099 808.321 211.777 793.081 213.825C773.069 216.347 756.174 216.028 733.619 207.849L733.625 207.863Z" fill="#F5F5F5"/>
<path d="M714.69 198.495C713.16 197.94 711.62 197.381 710.029 196.769L710.627 195.184C763.183 215.038 781.225 208.992 797.143 203.669C806.162 200.373 814.725 192.549 824.629 183.48C839.87 169.531 857.152 153.714 882.062 149.353C923.275 141.551 933.674 143.177 960.209 153.523L959.59 155.1C932.999 144.745 923.417 143.25 882.357 151.024C857.928 155.3 840.841 170.938 825.763 184.733C815.722 193.918 807.047 201.855 797.69 205.266C781.971 210.531 764.232 216.461 714.679 198.491L714.69 198.495Z" fill="#F5F5F5"/>
<path d="M709.873 195.563C709.475 195.418 709.067 195.27 708.669 195.126L709.246 193.533C737.011 203.887 768.388 205.818 789.161 198.451C800.253 194.342 809.387 185.041 819.06 175.202C831.146 162.894 844.843 148.954 865.679 141.313C882.506 134.957 899.328 132.665 915.675 134.527C928.152 135.947 940.072 139.688 951.108 145.67L950.297 147.154C932.445 137.479 903.364 128.889 866.276 142.905C845.795 150.414 832.232 164.213 820.277 176.39C810.47 186.37 801.205 195.801 789.743 200.049C768.903 207.439 737.684 205.66 709.88 195.577L709.873 195.563Z" fill="#F5F5F5"/>
<path d="M708.72 193.71C708.175 193.512 707.63 193.315 707.089 193.107L707.698 191.526C727.935 199.268 749.822 200.104 772.82 194.054C786.252 190.521 798.838 182.555 809.246 171.014C811.116 168.93 812.784 167.01 814.395 165.153C821.195 157.318 826.561 151.12 839.196 142.33C856.967 130.034 881.121 122.138 895.367 123.974L895.151 125.65C881.266 123.862 857.63 131.638 840.161 143.723C827.708 152.401 822.394 158.523 815.673 166.268C814.049 168.133 812.377 170.063 810.493 172.154C799.866 183.936 786.994 192.07 773.246 195.69C750.521 201.674 728.824 201.001 708.72 193.71Z" fill="#F5F5F5"/>
<path d="M706.366 192.062L706.828 190.428C734.495 198.339 761.102 191.227 776.769 181.925C786.014 176.304 793.642 169.066 801.721 161.398C814.052 149.689 826.798 137.585 846.036 131.25L846.564 132.864C827.69 139.082 815.074 151.055 802.888 162.627C794.746 170.367 787.05 177.664 777.64 183.379C761.659 192.863 734.561 200.118 706.366 192.062Z" fill="#F5F5F5"/>
<path d="M705.617 190.89L705.823 189.21C728.121 192.021 736.481 189.529 751.807 184.074C772.198 176.747 786.892 163.784 795.627 154.209L796.884 155.353C788.025 165.073 773.107 178.226 752.389 185.672C735.636 191.629 727.265 193.631 705.617 190.89Z" fill="#F5F5F5"/>
<path d="M704.862 189.703L704.906 188.012C734.559 188.879 747.551 180.611 756.137 175.142C766.546 168.438 774.709 161.619 775.603 160.852L776.097 160.439L776.652 160.77L776.182 161.477L776.729 162.126C775.803 162.916 767.567 169.804 757.065 176.569C748.293 182.16 735.05 190.598 704.873 189.707L704.862 189.703Z" fill="#F5F5F5"/>
<path d="M704.118 188.52L704.021 186.826C729.45 185.414 743.682 174.869 753.249 165.844L754.416 167.074C744.646 176.297 730.094 187.07 704.121 188.51L704.118 188.52Z" fill="#F5F5F5"/>
<path d="M447.222 286.207L447.111 284.519C497.404 281.325 525.298 281.911 550.04 286.675C576.666 291.803 599.688 302.096 631.759 317.212C652.697 327.01 677.63 329.876 707.982 325.971C732.438 322.796 753.892 315.937 764.504 312.139C779.483 306.595 792.396 299.424 807.331 291.125C826.437 280.509 848.083 268.48 879.715 256.99L880.298 258.588C848.8 270.032 827.205 282.021 808.156 292.609C793.15 300.942 780.19 308.143 765.086 313.737C754.403 317.568 732.817 324.463 708.202 327.651C677.524 331.604 652.279 328.684 631.035 318.751C565.527 287.87 544.383 280.048 447.207 286.213L447.222 286.207Z" fill="#F5F5F5"/>
<path d="M465.015 282.773L464.819 281.09C482.052 279.137 500.647 277.286 521.882 277.993C547.664 278.843 570.796 283.309 592.611 291.635C642.102 310.496 660.802 316.59 692.92 316.609C724.877 316.581 746.874 308.223 776.276 292.819C814.798 272.661 845.787 260.559 868.393 256.832L868.663 258.506C846.234 262.203 815.408 274.246 777.058 294.323C747.41 309.852 725.224 318.271 692.911 318.3C660.508 318.285 641.713 312.156 592.002 293.216C541.85 274.056 493.736 279.509 465.005 282.769L465.015 282.773Z" fill="#F5F5F5"/>
<path d="M482.06 278.037L481.864 276.354C483.731 276.142 485.616 275.913 487.522 275.691C515.935 272.327 548.139 268.513 593.657 284.404C648.01 303.487 694.013 309.181 730.355 301.344C746.81 297.449 765.997 288.214 784.544 279.269C812.306 265.901 838.533 253.269 857.759 256.116L857.507 257.791C838.801 255.014 811.585 268.118 785.283 280.794C766.654 289.768 747.378 299.053 730.732 302.986C694.057 310.892 647.765 305.176 593.104 285.993C547.957 270.225 515.961 274.02 487.732 277.367C485.826 277.589 483.941 277.818 482.074 278.03L482.06 278.037Z" fill="#F5F5F5"/>
<path d="M496.288 273.157L496.008 271.478C528.38 266.089 563.102 267.882 593.775 276.528C626.23 286.01 691.348 297.736 727.959 288.893C741.52 285.561 756.347 279.783 772.038 273.679C797.311 263.842 823.452 253.668 843.99 254.466L843.921 256.16C823.735 255.371 797.761 265.475 772.653 275.253C756.904 281.384 742.024 287.178 728.361 290.532C691.423 299.458 625.922 287.677 593.306 278.148C562.868 269.575 528.413 267.796 496.282 273.142L496.288 273.157Z" fill="#F5F5F5"/>
<path d="M504.853 269.873L504.519 268.211C531.392 262.819 547.991 264.346 569.003 266.288C571.711 266.535 574.486 266.794 577.349 267.038C584.734 267.725 594.209 269.774 605.166 272.148C631.117 277.766 666.644 285.446 701.788 280.421C729.029 276.562 750.416 269.986 769.28 264.191C790.051 257.807 807.984 252.29 828.459 251.726L828.51 253.416C808.271 253.983 790.435 259.463 769.784 265.808C750.853 271.626 729.413 278.218 702.033 282.099C666.588 287.168 630.886 279.448 604.813 273.81C593.897 271.451 584.478 269.411 577.199 268.727C574.325 268.479 571.551 268.219 568.843 267.972C547.967 266.044 531.484 264.524 504.853 269.873Z" fill="#F5F5F5"/>
<path d="M520.345 267.359L519.933 265.716C539.604 260.83 563.961 248.516 585.464 237.667C593.008 233.86 600.135 230.257 606.628 227.194L607.589 226.701C625.906 217.281 674.539 192.255 724.884 211.995L724.265 213.572C674.645 194.119 626.495 218.893 608.367 228.216L607.378 228.722C600.885 231.785 593.772 235.382 586.231 239.178C564.654 250.071 540.201 262.422 520.345 267.359Z" fill="#F5F5F5"/>
<path d="M530.415 266.459L529.964 264.826C559.314 256.657 585.67 244.452 606.846 234.634L609.365 233.473C630.643 223.112 666.214 205.796 734.006 216.749L733.733 218.417C666.468 207.548 631.196 224.724 610.122 234.981L610.065 235.008L607.546 236.168C586.317 246.002 559.896 258.255 530.405 266.456L530.415 266.459Z" fill="#F5F5F5"/>
<path d="M535.553 266.248L535.22 264.586C553.625 260.936 580.064 251.771 605.625 242.904C616.756 239.046 628.254 235.06 638.707 231.668C673.371 220.448 725.979 218.781 755.975 227.952L755.481 229.575C725.765 220.482 673.609 222.146 639.225 233.278C628.786 236.664 617.289 240.65 606.172 244.501C580.547 253.381 554.051 262.572 535.543 266.245L535.553 266.248Z" fill="#F5F5F5"/>
<path d="M543.271 266.214L542.948 264.556C579.018 257.532 621.257 245.397 643.227 238.783C666.265 231.74 708.307 225.673 777.756 236.764L777.494 238.435C708.357 227.398 666.584 233.408 643.717 240.407C621.708 247.03 579.405 259.178 543.271 266.214Z" fill="#F5F5F5"/>
<path d="M551.676 266.571L551.53 264.883C571.879 263.064 590.614 258.833 610.454 254.364C630.866 249.758 651.976 244.991 675.519 242.896C701.94 240.517 740.959 239.612 785.389 240.362C786.58 240.379 787.45 240.398 787.56 240.391L787.577 241.227L788.394 241.523C788.255 241.907 787.238 242.084 785.345 242.053C740.982 241.316 702.022 242.218 675.655 244.581C652.221 246.668 631.164 251.419 610.806 256.009C590.908 260.505 572.124 264.741 551.655 266.564L551.676 266.571Z" fill="#F5F5F5"/>
<path d="M563.343 267.448L563.133 265.771C579.728 263.681 595.948 266.09 614.727 268.894C624.03 270.276 633.634 271.708 644.536 272.829C677.385 276.159 721.759 267.583 736.088 263.996C740.198 262.926 744.766 261.607 749.6 260.207C768.987 254.602 793.113 247.632 814.965 248.599L814.886 250.289C793.312 249.34 769.332 256.267 750.065 261.834C745.217 263.24 740.634 264.566 736.499 265.639C722.078 269.252 677.449 277.878 644.351 274.516C633.413 273.394 623.788 271.955 614.465 270.565C595.808 267.782 579.701 265.39 563.339 267.458L563.343 267.448Z" fill="#F5F5F5"/>
<path d="M571.811 266.749L571.626 265.07C593.805 262.587 607.562 263.581 626.594 264.971L628.962 265.142C651.065 266.756 685.009 265.007 707.917 261.07C719.415 259.076 730.946 256.797 742.087 254.578C771.301 248.779 796.528 243.773 807.978 246.717L807.562 248.356C796.489 245.514 771.429 250.485 742.421 256.24C731.269 258.455 719.735 260.744 708.211 262.741C685.19 266.697 651.062 268.463 628.847 266.831L626.479 266.66C607.539 265.279 593.852 264.287 571.822 266.753L571.811 266.749Z" fill="#F5F5F5"/>
<path d="M566.98 267.06L566.711 265.385C612.718 257.994 649.402 253.92 675.724 253.248C690.011 252.881 715.922 250.175 740.974 247.548C763.311 245.217 784.407 243.005 794.728 242.753L794.765 244.45C784.514 244.704 763.446 246.902 741.145 249.234C716.058 251.86 690.112 254.565 675.765 254.934C649.517 255.597 612.917 259.667 566.974 267.046L566.98 267.06Z" fill="#F5F5F5"/>
<path d="M761.786 230.463L762.28 228.84C809.375 243.323 869.396 258.938 915.931 251.169L916.215 252.837C869.326 260.667 809.052 244.996 761.775 230.459L761.786 230.463Z" fill="#F5F5F5"/>
<path d="M773.036 232.848L773.379 231.182C838.766 244.748 843.701 245.162 871.08 247.493L871.977 247.569C899.764 249.823 940.38 247.98 940.769 247.955L940.817 248.803L941.528 249.262C941.349 249.537 938.852 249.754 934.037 249.912C930.149 250.043 924.028 250.218 916.93 250.311C904.407 250.487 886.419 250.436 871.838 249.261L870.941 249.185C843.481 246.849 838.535 246.43 773.036 232.848Z" fill="#F5F5F5"/>
<path d="M785.262 233.915L785.513 232.24C789.138 232.772 793.277 233.419 798.055 234.168C826.542 238.608 874.231 246.028 903.411 244.08C935.537 242.051 962.067 246.101 979.613 248.778L982.724 249.254L982.472 250.929L979.361 250.452C961.882 247.788 935.464 243.756 903.522 245.768C874.159 247.732 826.357 240.295 797.793 235.839C793.011 235.101 788.871 234.453 785.262 233.915Z" fill="#F5F5F5"/>
<path d="M792.398 233.848L792.604 232.168C853.111 239.744 920.891 239.419 940.22 239.139C978.003 238.604 1002.79 250.819 1007.38 253.276L1007.49 253.339L1007.13 254.027L1006.93 254.928C1006.81 254.907 1006.76 254.864 1006.58 254.774C1002.06 252.354 977.61 240.31 940.243 240.842C920.878 241.121 853.003 241.447 792.384 233.854L792.398 233.848Z" fill="#F5F5F5"/>
<path d="M799.117 233.332L799.256 231.64C832.432 234.461 891.283 235.095 918.075 232.933C964.338 229.511 998.329 237.274 1019.13 256.009L1018 257.269C997.551 238.865 963.982 231.243 918.207 234.629C891.351 236.803 832.36 236.166 799.117 233.332Z" fill="#F5F5F5"/>
<path d="M804.593 232.615L804.662 230.922C835.787 232.074 875.821 232.818 909.396 228.232C943.694 223.577 965.017 224.174 988.059 230.456C1007.12 235.625 1020.71 243.969 1028.76 250.053C1037.4 256.589 1041.93 262.214 1042.02 262.579L1040.37 263.001L1041.2 262.79L1040.5 263.273C1040.35 263.064 1023.69 241.872 987.621 232.087C964.814 225.878 943.682 225.28 909.63 229.906C875.928 234.517 835.799 233.774 804.607 232.609L804.593 232.615Z" fill="#F5F5F5"/>
<path d="M781.916 240.134C763.781 233.557 746.067 225.462 729.458 216.119L730.289 214.643C786.34 246.172 855.905 262.829 899.47 255.145L899.764 256.817C878.628 260.544 850.359 258.672 820.161 251.562C807.373 248.548 794.54 244.712 781.905 240.13L781.916 240.134Z" fill="#F5F5F5"/>
<path d="M810.179 231.595L810.177 229.899C843.711 229.969 872.844 226.843 901.015 223.818C911.214 222.728 921.774 221.59 932.286 220.649C971.707 217.069 993.528 221.521 1029.56 240.467C1052.82 252.674 1063.75 268.929 1063.89 269.775L1063.06 269.912L1062.31 270.305C1062.22 270.154 1052.2 254.251 1028.77 241.948C993.079 223.184 971.479 218.777 932.439 222.317C921.938 223.262 911.393 224.393 901.194 225.483C872.976 228.503 843.804 231.639 810.176 231.57L810.179 231.595Z" fill="#F5F5F5"/>
<path d="M813.675 230.812L813.578 229.117C835.523 227.901 888.501 220.963 905.881 218.411C910.35 217.756 914.874 216.884 919.675 215.969C936.401 212.765 955.356 209.137 979.069 213.504C1009.32 219.033 1038.72 234.615 1051.11 243.742C1059.52 249.933 1067.2 258.292 1072.17 264.207C1075 267.58 1077.25 270.519 1078.64 272.385C1080.42 274.787 1081.25 276.159 1081.13 276.501L1079.54 275.902L1080.34 276.191L1079.61 276.637C1079.5 276.455 1065.95 256.772 1050.1 245.097C1037.85 236.066 1008.73 220.647 978.765 215.16C955.361 210.857 936.572 214.451 919.998 217.627C915.183 218.549 910.638 219.413 906.129 220.078C888.726 222.633 835.669 229.589 813.668 230.798L813.675 230.812Z" fill="#F5F5F5"/>
<path d="M818.168 229.668L817.898 227.993C825.584 226.738 832.887 225.558 839.861 224.436C868.345 219.865 890.838 216.251 912.124 211.133C933.845 205.923 958.301 202.096 989.85 209.306C1026.53 217.675 1056.15 238.424 1062.08 243.514C1068.56 249.134 1093.61 273.951 1099.84 283.131L1098.44 284.082C1092.28 274.998 1067.42 250.38 1060.98 244.797C1055.47 240.063 1025.45 219.17 989.475 210.96C958.266 203.826 934.047 207.62 912.521 212.782C891.172 217.913 868.654 221.53 840.131 226.11C833.157 227.232 825.858 228.402 818.172 229.657L818.168 229.668Z" fill="#F5F5F5"/>
<path d="M825.229 227.487L824.896 225.825C843.823 222.044 882.848 213.769 895.149 209.529C908.468 205.065 955.601 194.408 981.691 201.404L981.25 203.045C955.527 196.147 908.876 206.719 895.693 211.136C883.32 215.41 844.192 223.707 825.226 227.497L825.229 227.487Z" fill="#F5F5F5"/>
<path d="M826.73 226.976L826.28 225.343C849.646 218.963 861.321 214.52 877.754 207.974C890.219 203.023 902.653 200.147 910.881 198.247C913.946 197.545 916.358 196.973 917.762 196.534L918.266 198.151C916.805 198.617 914.361 199.177 911.258 199.889C903.079 201.783 890.719 204.65 878.369 209.548C861.868 216.118 850.154 220.57 826.706 226.979L826.73 226.976Z" fill="#F5F5F5"/>
<path d="M703.604 187.682L703.433 185.996C715.962 184.755 721.022 181.196 727.436 176.683C733.488 172.417 735.258 168.779 735.437 168.382L735.632 167.943L736.106 167.878L736.204 168.719L736.973 169.081C736.764 169.527 734.812 173.537 728.405 178.065C721.786 182.718 716.564 186.396 703.593 187.678L703.604 187.682Z" fill="#F5F5F5"/>
<path d="M703.138 186.743L702.712 185.106C708.902 183.499 716.849 178.059 719.552 174.463C722.233 170.896 722.979 169.068 722.986 169.047L723.75 169.359L724.619 169.449C724.585 169.769 723.607 171.88 720.904 175.475C717.975 179.368 709.751 185.015 703.138 186.743Z" fill="#F5F5F5"/>
<path d="M702.871 185.78L701.92 184.38C705.624 181.883 711.751 172.144 710.825 169.307L712.435 168.789C713.772 172.913 706.546 183.296 702.857 185.787L702.871 185.78Z" fill="#F5F5F5"/>
<path d="M701.271 182.675L699.97 181.587C702.859 178.13 702.997 171.115 700.23 168.416L701.414 167.21C704.766 170.488 704.688 178.58 701.271 182.675Z" fill="#F5F5F5"/>
<path d="M698.411 180.002C698.673 176.6 694.73 170.476 689.448 166.047L690.536 164.747C695.428 168.844 700.45 175.621 700.096 180.127L698.401 179.998L698.411 180.002Z" fill="#F5F5F5"/>
<path d="M997.161 361.307C994.28 360.262 991.513 359.199 988.835 358.181C980.399 354.967 965 345.162 948.706 334.785C927.493 321.271 903.435 305.956 889.368 301.696C887.06 301.001 884.878 300.316 882.801 299.67C862.215 293.283 851.882 290.069 821.728 296.927L821.355 295.274C851.949 288.315 863.083 291.772 883.305 298.051C885.382 298.697 887.557 299.368 889.862 300.073C904.153 304.402 928.304 319.787 949.618 333.349C965.846 343.679 981.179 353.436 989.444 356.6C1007.64 363.576 1030.26 372.244 1064.08 366.24C1089.16 361.799 1108.2 351.598 1126.6 341.736C1132.39 338.641 1137.83 335.72 1143.4 333.01C1158.13 325.869 1177.11 326.954 1180.76 327.247L1180.87 327.254L1180.83 328.067L1181.11 328.903C1180.94 328.962 1180.84 328.949 1180.63 328.933C1177.05 328.641 1158.48 327.574 1144.15 334.528C1138.62 337.214 1133.17 340.135 1127.42 343.217C1108.89 353.143 1089.73 363.418 1064.38 367.902C1035.09 373.093 1014.12 367.443 997.165 361.296L997.161 361.307Z" fill="#F5F5F5"/>
<path d="M823.848 295.526L823.422 293.89C842.134 289.035 858.508 286.509 898.955 298.273C915.567 303.065 932.586 313.599 950.605 324.745C955.021 327.473 959.579 330.299 964.133 333.041C990.08 348.603 1012.42 359.041 1037.1 359.433C1074.28 360.017 1095.47 347.87 1114.16 337.142C1118.15 334.853 1121.92 332.699 1125.75 330.698C1142.8 321.851 1159.67 320.322 1168.95 321.696L1168.7 323.371C1159.68 322.032 1143.22 323.544 1126.53 332.202C1122.73 334.179 1118.97 336.337 1115.01 338.609C1096.12 349.445 1074.71 361.728 1037.08 361.131C1012.01 360.729 989.443 350.198 963.259 334.502C958.685 331.753 954.123 328.937 949.7 326.195C931.778 315.108 914.856 304.633 898.468 299.91C858.441 288.263 842.293 290.752 823.834 295.533L823.848 295.526Z" fill="#F5F5F5"/>
<path d="M827.476 293.333L827.132 291.667C846.368 287.69 872.709 282.259 912.995 299.666C943.877 312.964 962.76 324.34 979.415 334.375C984.065 337.176 988.452 339.822 992.818 342.33C1008.96 351.692 1037.68 356.525 1065.5 346.272C1083.61 339.6 1097.62 332.137 1107.85 326.697C1113.19 323.855 1117.4 321.614 1120.87 320.157C1130.3 316.215 1144.1 312.082 1156.3 314.773L1155.93 316.431C1144.17 313.836 1130.73 317.876 1121.52 321.721C1118.14 323.149 1113.95 325.376 1108.65 328.195C1098.38 333.669 1084.31 341.155 1066.08 347.87C1053.19 352.62 1039.05 354.545 1025.19 353.442C1012.78 352.451 1000.99 349.026 991.975 343.802C987.61 341.294 983.202 338.641 978.552 335.84C961.945 325.835 943.125 314.481 912.344 301.232C872.55 284.039 846.502 289.41 827.487 293.337L827.476 293.333Z" fill="#F5F5F5"/>
<path d="M831.392 290.936L831.044 289.281C845.298 286.259 881.635 280.363 911.128 290.988L911.327 291.06C935.663 299.886 971.811 319.811 987.276 328.324C988.68 329.093 989.903 329.774 990.942 330.341C1016.52 344.441 1041.44 342.738 1057.84 338.834C1070.11 335.887 1084.27 327.688 1095.64 321.108C1102.01 317.418 1107.5 314.241 1111.69 312.499C1123.61 307.541 1131.09 304.92 1146.19 308.548L1145.8 310.194C1131.17 306.681 1124.26 309.106 1112.34 314.064C1108.26 315.762 1102.81 318.919 1096.5 322.569C1085.03 329.21 1070.75 337.473 1058.23 340.484C1041.55 344.461 1016.18 346.181 990.131 331.825C989.102 331.262 987.869 330.578 986.465 329.808C970.994 321.281 934.762 301.325 910.55 292.58C880.645 281.818 842.399 288.598 831.392 290.936Z" fill="#F5F5F5"/>
<path d="M833.56 289.6L833.201 287.941C857.355 282.725 878.205 278.218 908.545 285.132C929.413 289.89 951.838 300.654 969.872 309.304C977.082 312.761 983.321 315.758 988.385 317.844C1007.31 325.703 1029.34 333.679 1051.3 328.652C1064.49 325.613 1076.97 317.704 1087.98 310.72C1095.83 305.743 1102.62 301.447 1108.08 299.989C1121.32 296.423 1128.73 298.541 1135.19 301.026L1134.58 302.607C1128.38 300.228 1121.27 298.195 1108.52 301.629C1103.3 303.023 1096.63 307.251 1088.89 312.164C1077.77 319.212 1065.17 327.21 1051.69 330.312C1029.25 335.45 1006.92 327.389 987.755 319.417C982.653 317.306 976.4 314.315 969.162 310.837C951.208 302.228 928.874 291.508 908.192 286.794C878.222 279.967 857.529 284.435 833.581 289.608L833.56 289.6Z" fill="#F5F5F5"/>
<path d="M836.276 287.93L835.986 287.126L835.775 286.302C860.416 278.761 888.348 270.221 922.281 278.603C942.45 283.558 960.863 292.536 977.118 300.47C987.874 305.721 998.038 310.676 1006.74 313.392C1032.41 321.421 1052.01 319.839 1068.4 308.42C1084.03 297.573 1100.77 287.869 1117.43 290.363L1117.17 292.038C1101.11 289.626 1084.71 299.159 1069.37 309.803C1052.5 321.538 1032.45 323.202 1006.24 315.001C997.422 312.243 987.199 307.255 976.381 301.98C960.206 294.087 941.876 285.14 921.889 280.239C888.401 271.971 860.711 280.433 836.283 287.909L836.276 287.93Z" fill="#F5F5F5"/>
<path d="M839.276 286.031L838.608 284.473C857.513 276.405 875.117 269.702 899.226 269.317C927.813 268.874 952.77 278.896 974.797 287.75C976.823 288.568 978.829 289.378 980.821 290.195C999.649 297.865 1017.42 305.105 1037.43 305.639C1048.94 305.856 1057.18 300.428 1065.9 294.673C1076 288.01 1086.43 281.127 1102.2 283.975L1101.9 285.646C1086.8 282.921 1077.1 289.312 1066.83 296.09C1058.28 301.725 1049.43 307.561 1037.38 307.341C1017.07 306.802 999.141 299.494 980.17 291.761C978.178 290.944 976.173 290.134 974.156 289.319C952.273 280.53 927.483 270.568 899.242 271.006C875.398 271.38 858.663 277.746 839.255 286.023L839.276 286.031Z" fill="#F5F5F5"/>
<path d="M844.702 282.51L844.073 280.943C846.905 279.8 849.621 278.687 852.25 277.614C870.673 270.058 885.223 264.097 904.745 263.969C925.667 263.84 942.406 267.172 964.43 275.87C967.5 277.078 970.479 278.277 973.354 279.438C990.053 286.146 1003.25 291.441 1015.84 292.832L1017.78 293.048C1031.4 294.585 1039.61 295.512 1052.65 289.36C1056.9 287.345 1060.34 285.2 1063.36 283.298C1070.16 279.041 1075.52 275.677 1085.03 277.121L1084.78 278.796C1075.89 277.446 1071.01 280.502 1064.26 284.739C1061.19 286.661 1057.72 288.84 1053.38 290.891C1039.89 297.25 1031.5 296.304 1017.58 294.731L1015.66 294.519C1002.84 293.094 989.549 287.765 972.724 281.012C969.846 279.861 966.877 278.666 963.81 277.447C942.003 268.839 925.443 265.537 904.761 265.658C885.563 265.773 871.149 271.688 852.904 279.178C850.27 280.262 847.555 281.376 844.723 282.518L844.702 282.51Z" fill="#F5F5F5"/>
<path d="M851.1 278.465L850.418 276.913C854.241 275.23 857.687 273.67 861.027 272.143C881.17 262.982 893.332 257.459 922.801 257.395C947.45 257.349 968.488 265.464 983.843 271.4C989.926 273.749 995.169 275.768 999.674 276.975C1014.88 281.057 1031.1 284.566 1047.43 279.039C1057.55 275.609 1060.56 273.534 1062.54 272.154C1063.68 271.37 1064.58 270.748 1066.27 270.306L1066.7 271.942C1065.29 272.311 1064.63 272.78 1063.51 273.548C1061.45 274.981 1058.33 277.135 1047.98 280.646C1031.19 286.331 1014.7 282.755 999.233 278.617C994.65 277.394 989.356 275.355 983.231 272.992C967.997 267.112 947.137 259.061 922.798 259.101C893.685 259.164 881.659 264.642 861.719 273.698C858.373 275.211 854.919 276.792 851.086 278.471L851.1 278.465Z" fill="#F5F5F5"/>
<path d="M868.885 268.746L868.203 267.194C881.64 261.292 907.248 251.446 927.708 251.872C948.94 252.294 971.818 255.955 987.407 261.443C1006.5 268.179 1018.48 270.9 1027.47 270.553C1037.42 270.168 1052.57 265.728 1052.71 265.686L1052.96 266.5L1053.74 266.851C1053.62 267.109 1052.58 267.5 1050.63 268.025C1049.17 268.421 1046.87 269.02 1044.22 269.624C1039.52 270.706 1032.83 272.037 1027.55 272.244C1018.34 272.602 1006.17 269.848 986.861 263.047C971.429 257.616 948.754 253.981 927.695 253.575C907.563 253.161 882.215 262.911 868.906 268.753L868.885 268.746Z" fill="#F5F5F5"/>
<path d="M901.582 256.314L901.224 254.655C923.85 249.762 929.232 249.236 945.537 250.301C960.564 251.293 983.276 252.797 999.101 256.687C1014.87 260.568 1028.73 261.872 1034.38 260.01L1034.91 261.625C1028.87 263.606 1015 262.345 998.695 258.329C983.02 254.482 960.389 252.984 945.422 251.99C929.153 250.926 924.237 251.408 901.572 256.311L901.582 256.314Z" fill="#F5F5F5"/>
<path d="M1191.38 329.619C1177.55 324.604 1163.98 318.094 1150.47 310.017C1127.14 296.067 1105.93 278.715 1085.42 261.934C1076.57 254.694 1067.42 247.204 1058.14 240.023L1059.19 238.683C1068.47 245.877 1077.63 253.372 1086.5 260.619C1129.06 295.448 1169.25 328.339 1231.26 338.153C1264.35 343.387 1302.19 329.525 1328.11 316.969C1345.94 308.439 1361.53 298.708 1375.29 290.135C1385.15 283.992 1394.46 278.182 1402.87 273.929C1408.93 270.936 1414.95 267.628 1420.75 264.424C1443.28 252.037 1466.58 239.222 1498.08 241.59L1497.96 243.276C1466.95 240.945 1443.88 253.632 1421.57 265.905C1415.74 269.111 1409.71 272.426 1403.63 275.436C1395.28 279.642 1386.01 285.442 1376.18 291.562C1362.38 300.165 1346.74 309.916 1328.84 318.49C1302.71 331.146 1264.52 345.118 1230.99 339.821C1217.45 337.672 1204.29 334.289 1191.38 329.605L1191.38 329.619Z" fill="#F5F5F5"/>
<path d="M1202.33 328.778C1146.63 308.577 1127.74 293.795 1093.48 266.992C1082.61 258.487 1070.28 248.847 1054.74 237.424L1055.74 236.058C1071.31 247.489 1083.65 257.143 1094.52 265.652C1128.64 292.345 1147.46 307.065 1202.9 327.171L1203.08 327.235C1245.02 342.303 1288.14 329.051 1310.12 319.809C1333.46 310.126 1348.89 297.951 1358.1 290.673C1360.68 288.643 1362.72 287.036 1364.28 286.001C1369.25 283.05 1377.28 277.641 1386.58 271.377C1406.72 257.817 1431.78 240.945 1444.08 236.561C1462.81 230.72 1486.81 229.761 1489.48 229.676C1489.45 229.675 1489.27 229.705 1489.1 229.821L1490.05 231.221C1489.85 231.36 1489.67 231.366 1489.55 231.369C1486.89 231.462 1463.11 232.416 1444.62 238.168C1432.57 242.475 1407.6 259.275 1387.54 272.781C1378.21 279.058 1370.16 284.484 1365.19 287.435C1363.73 288.409 1361.71 290.002 1359.16 292.005C1349.88 299.331 1334.34 311.594 1310.78 321.377C1294.13 328.38 1276.46 333.029 1259.66 334.832C1238.98 337.04 1219.74 335.032 1202.51 328.842L1202.33 328.778Z" fill="#F5F5F5"/>
<path d="M1184.98 317.244C1170.75 312.084 1159.5 306.996 1145.82 299.083C1126.14 287.669 1100.49 269.784 1060.27 241.542L1061.25 240.154C1101.43 268.37 1127.06 286.233 1146.67 297.615C1166.05 308.813 1180.54 314.343 1205.73 322.482C1233.86 331.298 1261.84 327.715 1280.35 323.154C1304.26 317.269 1320.98 307.994 1327.1 303.445L1327.15 303.404C1336.56 297.417 1351.15 284.914 1366.58 271.675C1379.62 260.506 1393.1 248.94 1403.6 241.276C1426.15 225.64 1446.01 213.754 1478.82 214.534L1478.77 216.225C1446.39 215.459 1427.6 226.696 1404.59 242.652C1394.15 250.272 1380.7 261.8 1367.7 272.956C1352.23 286.219 1337.61 298.756 1328.1 304.814C1319.75 311.011 1301.9 319.59 1280.77 324.791C1262.05 329.405 1233.75 333.022 1205.24 324.084C1197.68 321.637 1191.08 319.434 1185.02 317.234L1184.98 317.244Z" fill="#F5F5F5"/>
<path d="M1186.93 313.731C1181.51 311.767 1176.18 309.632 1170.92 307.414C1139.2 294.289 1115.68 278.364 1080.09 254.275C1071.2 248.269 1062.02 242.046 1051.67 235.162L1052.61 233.748C1062.97 240.636 1072.16 246.848 1081.04 252.865C1116.55 276.899 1140 292.776 1171.57 305.838C1207.83 321.109 1247.47 332.32 1291.71 311.117C1323.31 295.611 1341.36 276.966 1358.8 258.933C1364.49 253.053 1370.38 246.975 1376.64 241.1C1400.44 218.72 1426.6 197.009 1461.59 198.636L1461.51 200.326C1427.19 198.738 1401.33 220.207 1377.79 242.336C1371.56 248.172 1365.69 254.234 1360.01 260.106C1342.46 278.243 1324.32 296.995 1292.43 312.638C1254.04 331.04 1219.14 325.389 1186.92 313.706L1186.93 313.731Z" fill="#F5F5F5"/>
<path d="M1178.29 306.321C1147.87 295.288 1126.28 281.923 1081.93 254.482C1076.16 250.908 1070 247.099 1063.4 243.03L1064.29 241.587C1070.9 245.655 1077.05 249.465 1082.82 253.039C1133.35 284.307 1154.27 297.253 1192.41 309.305C1237.03 323.53 1281.87 315.788 1306.66 289.57C1315.14 280.567 1323 271.173 1330.6 262.087C1347.02 242.461 1362.54 223.93 1383.72 209.054C1412.49 189.022 1448.62 181.154 1455.56 179.784L1455.71 179.757L1455.89 180.544L1456.32 181.317C1456.2 181.38 1456.14 181.393 1455.89 181.443C1448.99 182.806 1413.17 190.608 1384.69 210.447C1363.68 225.186 1348.24 243.639 1331.89 263.185C1324.28 272.289 1316.4 281.7 1307.89 290.752C1295.1 304.275 1277.13 313.203 1255.93 316.565C1235.67 319.779 1213.53 317.832 1191.89 310.931C1187.11 309.424 1182.61 307.896 1178.29 306.331L1178.29 306.321Z" fill="#F5F5F5"/>
<path d="M1175.33 301.748C1152.39 293.428 1128.1 279.725 1089.36 257.877C1082.59 254.059 1075.38 249.985 1067.65 245.652L1068.48 244.175C1076.21 248.509 1083.44 252.586 1090.21 256.405C1154.98 292.935 1179.22 306.609 1224.42 310.435C1246.73 312.242 1267.8 306.822 1285.35 294.742C1298.16 285.922 1309.22 273.337 1314.92 261.049L1314.95 260.976C1326.61 240.736 1359.62 204.997 1375.35 191.699C1393.61 177.72 1426.74 164.827 1449.21 162.937L1449.36 164.626C1427.17 166.488 1394.44 179.229 1376.41 193.021C1360.82 206.213 1328.03 241.689 1316.45 261.79C1310.62 274.329 1299.35 287.158 1286.32 296.135C1268.44 308.428 1246.99 313.962 1224.28 312.117C1205.86 310.556 1190.91 307.387 1175.34 301.742L1175.33 301.748Z" fill="#F5F5F5"/>
<path d="M410.965 288.089L411.084 285.832C454.621 288.096 490.87 274.108 521.425 260.817C536.37 254.157 551.329 246.969 565.792 240.004C584.385 231.064 601.957 222.619 618.802 215.558C649.565 202.936 669.553 198.484 687.798 200.181C705.585 201.831 721.241 209.488 743.097 220.971L742.05 222.974C697.964 199.802 679.668 193.049 619.667 217.65C602.883 224.674 585.34 233.106 566.771 242.043C552.287 249 537.321 256.209 522.337 262.878C491.533 276.268 454.995 290.365 410.969 288.078L410.965 288.089Z" fill="#F5F5F5"/>
<path d="M1003.61 373.969C998.86 372.248 994.304 370.133 989.907 367.614C969.056 355.749 951.361 344.626 935.751 334.816C888.07 304.852 859.294 286.759 819.45 298.436L818.812 296.272C859.633 284.321 888.742 302.607 936.949 332.915C952.539 342.718 970.216 353.823 991.026 365.673C1012.35 377.874 1037.87 380.481 1069.06 373.619C1089.83 369.026 1111.63 360.335 1135.69 347.072C1164.36 331.14 1191.17 332.885 1201.36 334.375C1201.56 334.401 1201.7 334.426 1201.75 334.434L1201.65 335.429L1201.99 336.654C1201.74 336.729 1201.61 336.708 1201.02 336.622C1191.04 335.162 1164.84 333.458 1136.77 349.063C1112.5 362.441 1090.52 371.194 1069.53 375.841C1044.16 381.421 1022.43 380.831 1003.58 373.996L1003.61 373.969Z" fill="#F5F5F5"/>
<path d="M257.067 372.084C255.789 371.621 254.504 371.143 253.21 370.626C227.697 360.698 196.322 341.698 162.452 315.688C91.12 261.085 31.0446 192.439 1.58621 156.388L3.33667 154.96C32.7369 190.943 92.6685 259.429 163.824 313.898C197.525 339.787 228.716 358.673 254.03 368.529C282.613 379.666 305.576 380.086 324.23 369.77C338.789 361.82 351.887 353.946 364.558 346.331C386.051 333.417 406.362 321.211 427.997 312.414C462.789 297.803 500.559 291.716 550.454 292.693L550.405 294.951C500.838 293.986 463.351 300.01 428.852 314.502C407.356 323.243 387.13 335.408 365.717 348.269C353.031 355.89 339.919 363.771 325.317 371.74C306.903 381.919 284.54 382.036 257.071 372.074L257.067 372.084Z" fill="#F5F5F5"/>
<path d="M305.563 265.785C261.908 249.953 219.314 225.379 178.872 192.682L180.292 190.921C278.949 270.69 366.284 283.716 423.403 286.578C441.937 287.704 459.657 287.871 476.8 288.031C523.174 288.454 563.224 288.825 594.353 308.341C635.987 333.895 674.555 342.832 715.696 336.438C753.119 330.782 795.01 312.581 843.76 280.793C884.918 254.183 926.955 243.847 976.066 248.262C1016.84 252.141 1062.93 266.119 1125.54 293.568L1124.64 295.635C1062.26 268.284 1016.38 254.357 975.87 250.502C927.29 246.126 885.707 256.354 844.997 282.676C795.967 314.647 753.785 332.968 716.04 338.661C695.252 341.885 675.299 341.205 655.062 336.569C634.619 331.881 614.377 323.272 593.16 310.255C562.569 291.089 522.815 290.719 476.776 290.286C459.609 290.13 441.864 289.965 423.273 288.83C382.723 286.797 345.715 279.801 310.131 267.406C308.605 266.876 307.071 266.332 305.552 265.781L305.563 265.785Z" fill="#F5F5F5"/>
<path d="M224.968 57.631C187.222 43.9423 151.111 25.1566 119.48 2.48348L120.797 0.649495C170.633 36.3733 231.668 62.3961 292.655 73.9395C344.681 84.1417 390.562 83.2126 432.398 80.6866C466.935 78.6429 505.314 83.6233 543.404 95.0895C578.426 105.633 609.372 120.554 630.558 137.116L629.165 138.899C590.212 108.437 508.058 78.4777 432.54 82.9429C390.559 85.4757 344.499 86.4106 292.231 76.1564C269.633 71.8849 247.024 65.618 224.972 57.6205L224.968 57.631Z" fill="#F5F5F5"/>
<path d="M685.51 165.141C682.597 164.084 679.789 162.841 677.13 161.379L678.215 159.401C699.177 170.927 730.349 168.718 747.059 166.374C770.336 163.15 795.085 155.542 810.097 146.998C824.402 138.115 857.718 123.158 891.582 123.526C911.332 124.014 928.834 129.686 945.1 140.86C964.85 154.423 983.007 176.039 1000.63 206.919L998.668 208.034C966.818 152.197 933.785 126.823 891.548 125.778C858.213 125.424 825.398 140.172 811.265 148.939C795.746 157.773 771.288 165.298 747.385 168.613C732.486 170.702 706.274 172.671 685.52 165.144L685.51 165.141Z" fill="#F5F5F5"/>
<path d="M176.275 191.835C172.933 190.623 169.582 189.337 166.219 187.987C109.739 165.975 44.4954 120.799 0.0197912 72.877L1.67795 71.3445C45.941 119.035 110.859 163.998 167.049 185.893C212.322 204.161 255.536 209.081 282.663 199.063C291.14 195.89 299.62 192.576 308.588 189.06C323.979 183.036 339.885 176.796 359.252 169.939C393.997 157.551 433.781 145.319 480.913 132.539C539.328 117.213 590.455 125.287 623.069 134.756C641.992 140.302 659.412 147.77 673.465 156.351C687.07 164.663 696.963 173.633 702.045 182.304C713.611 201.992 733.27 218.355 754.652 226.109C754.819 226.17 754.977 226.227 755.144 226.288C774.693 233.377 806.15 237.377 845.593 216.64C880.132 199.554 918.216 192.633 955.744 196.593C992.896 200.512 1028.73 215.001 1059.38 238.47C1069.43 246.061 1079.59 254.9 1090.34 264.266C1112.49 283.547 1137.6 305.397 1167.35 320.488C1197.04 335.996 1257.24 357.023 1327.08 323.672C1356.15 309.369 1376.73 298.186 1393.26 289.21C1409.13 280.586 1420.6 274.35 1432.09 269.388C1455.14 259.052 1476.16 255.082 1506.88 251.345L1507.15 253.591C1476.65 257.298 1455.8 261.237 1432.97 271.438C1421.56 276.367 1410.13 282.583 1394.31 291.179C1377.76 300.173 1357.17 311.373 1328.04 325.692C1299.98 339.094 1270.59 345.009 1240.68 343.275C1215.23 341.798 1189.5 334.614 1166.29 322.487C1136.3 307.274 1111.08 285.325 1088.83 265.957C1078.11 256.628 1067.97 247.807 1057.99 240.252C996.249 192.968 915.255 184.684 846.602 218.63C806.458 239.729 774.338 235.631 754.37 228.39C754.202 228.329 754.035 228.268 753.867 228.208C732.014 220.282 711.921 203.548 700.088 183.42C689.859 165.995 659.367 147.73 622.425 136.893C590.09 127.502 539.399 119.503 481.484 134.69C434.431 147.451 394.685 159.673 360.008 172.038C340.68 178.886 324.791 185.109 309.412 191.137C300.433 194.649 291.949 197.973 283.458 201.153C257.85 210.608 218.344 207.068 176.293 191.818L176.275 191.835Z" fill="#F5F5F5"/>
</svg>
