<svg width="1508" height="380" viewBox="0 0 1508 380" fill="none" xmlns="http://www.w3.org/2000/svg">
<path d="M1265.95 352.909C1297.89 341.326 1334.96 317.393 1379.03 279.93C1409.36 254.101 1437.66 226.354 1465.03 199.523C1472.94 191.772 1481.1 183.761 1489.08 176.043L1487.9 174.823C1479.93 182.54 1471.76 190.552 1463.85 198.302C1436.51 225.111 1408.23 252.84 1377.94 278.63C1331.36 318.234 1292.68 342.646 1259.67 353.268C1221.16 365.393 1200.13 357.705 1183.15 347.577C1175.61 342.913 1168.61 337.533 1161.86 332.338C1152.72 325.315 1144.09 318.677 1134.83 314.259C1101.49 298.005 1045.71 290.341 1004.62 288.589L1004.55 290.286C1045.46 292.033 1100.98 299.637 1134.09 315.784C1143.19 320.128 1151.76 326.718 1160.83 333.683C1167.63 338.909 1174.65 344.317 1182.28 349.031C1199.62 359.361 1221.05 367.212 1260.19 354.879C1262.1 354.269 1264.03 353.605 1265.98 352.898L1265.95 352.909Z" fill="#F5F5F5"/>
<path d="M1215.07 250.176C1251.73 236.882 1287.9 217.792 1317.53 196.045L1316.52 194.679C1285.39 217.526 1247 237.436 1208.45 250.716C1169.5 264.154 1131.58 270.296 1098.78 268.475C1063.54 267.032 1026.96 250.803 994.692 236.474C983.058 231.198 971.99 225.978 962.214 221.379C944.415 212.993 930.359 206.367 922.589 203.933C920.331 203.164 917.686 202.179 914.881 201.146C902.774 196.657 886.193 190.52 866.987 188.357C837.6 185.086 811.389 192.174 786.862 210.018L787.857 211.388C812.027 193.803 837.85 186.821 866.792 190.041C885.785 192.173 902.259 198.278 914.284 202.737C917.093 203.781 919.748 204.762 922.05 205.551C929.738 207.955 943.751 214.562 961.483 222.925C971.262 227.534 982.341 232.751 993.989 238.033C1026.4 252.418 1063.14 268.731 1098.69 270.18C1131.69 272.01 1169.84 265.834 1208.99 252.334C1211.02 251.636 1213.04 250.923 1215.06 250.194L1215.07 250.176Z" fill="#F5F5F5"/>
<path d="M1208.92 256.77C1219.57 252.907 1229.75 248.777 1239.66 244.294C1268.58 231.235 1295.8 214.903 1322.88 194.34L1321.86 192.992C1271.03 231.566 1219.86 255.314 1150.76 272.41C1122.08 279.904 1091.04 279.983 1055.86 272.651C1025.67 266.221 995.14 255.101 967.583 240.497C963.965 238.597 960.337 236.665 956.698 234.736C906.81 208.245 855.211 180.857 805.663 203.058L806.356 204.608C855.162 182.748 906.368 209.935 955.901 236.234C959.54 238.162 963.169 240.095 966.786 241.995C994.48 256.68 1025.16 267.852 1055.51 274.306C1090.96 281.695 1122.25 281.609 1151.17 274.049C1172.39 268.795 1191.3 263.147 1208.9 256.764L1208.92 256.77Z" fill="#F5F5F5"/>
<path d="M1225.16 240.412C1255.04 229.576 1284.92 214.958 1312.81 197.473L1311.9 196.034C1234.03 244.879 1156.03 262.578 1113.27 258.454C1090.44 256.824 1062.76 246.711 1038.68 237.033C1015.08 227.47 992.67 216.973 981.849 211.26C970.064 204.782 948.07 194.538 924.89 187.037C903.874 180.208 873.757 172.768 849.609 176.132C807.877 181.901 791.722 200.408 790.018 202.508L791.281 203.638L791.333 203.584C793 201.545 808.754 183.504 849.844 177.825C873.676 174.505 903.533 181.884 924.375 188.658C947.439 196.131 969.329 206.317 981.057 212.768C991.934 218.508 1014.4 229.032 1038.06 238.622C1062.26 248.35 1090.1 258.514 1113.15 260.161C1136.28 262.393 1167.51 258.192 1201.07 248.342C1209.08 245.997 1217.13 243.35 1225.18 240.429L1225.16 240.412Z" fill="#F5F5F5"/>
<path d="M1241.11 228.95C1266.1 219.889 1289.16 208.502 1307.53 198.947L1306.75 197.441C1283.22 209.672 1251.98 224.936 1218.92 234.392C1185.3 244.056 1151.96 247.163 1116.97 243.873C1080.54 239.848 1052.25 227.196 1027.09 214.116C1017.02 208.817 1007.46 203.42 998.214 198.201C984.295 190.351 971.146 182.922 959.01 177.437C920.06 159.663 867.473 144.131 805.983 182.138L806.874 183.581C867.677 146.002 919.749 161.388 958.313 178.982C970.392 184.44 983.509 191.845 997.389 199.685C1006.65 204.911 1016.21 210.308 1026.32 215.627C1051.62 228.784 1080.09 241.506 1116.81 245.565C1152.04 248.878 1185.58 245.758 1219.39 236.033C1226.75 233.923 1234.01 231.536 1241.13 228.957L1241.11 228.95Z" fill="#F5F5F5"/>
<path d="M1266.22 214.629C1277.36 210.587 1288.59 205.996 1299.88 200.847L1299.17 199.3C1254.75 219.547 1211.36 231.24 1170.22 234.044C1135.87 236.391 1104.06 232.056 1080.66 221.845C1065.86 215.111 1051.16 205.16 1035.62 194.617C1026.57 188.487 1017.22 182.157 1007.53 176.259C976.365 156.977 949.051 146.838 924.023 145.293C896.109 143.337 876.266 144.416 859.696 148.801C844.498 152.819 832.327 159.497 816.448 169.677L817.356 171.102C848.265 151.311 867.681 143.037 923.902 146.984C948.654 148.523 975.708 158.567 1006.64 177.707C1016.3 183.591 1025.64 189.915 1034.67 196.027C1050.29 206.603 1065.03 216.596 1079.98 223.396C1103.64 233.723 1135.73 238.101 1170.35 235.74C1201.23 233.635 1233.35 226.548 1266.22 214.629Z" fill="#F5F5F5"/>
<path d="M1291.09 202.716L1290.55 201.112C1192.9 234.283 1147.39 227.827 1109.14 218.368C1092.59 213.443 1078.46 201.118 1063.5 188.075C1061.02 185.915 1058.46 183.691 1055.88 181.474C1038.45 166.373 1017.1 149.838 990.874 141.711C941.114 125.51 923.387 125.134 902.484 130.451L902.901 132.09C923.482 126.866 940.998 127.247 990.37 143.328C1016.31 151.357 1037.49 167.766 1054.78 182.761C1057.36 184.978 1059.92 187.203 1062.39 189.352C1077.5 202.522 1091.76 214.952 1108.7 219.998C1126.82 224.477 1149.32 228.824 1179.25 227.237C1210.85 225.557 1247.44 217.539 1291.1 202.701L1291.09 202.716Z" fill="#F5F5F5"/>
<path d="M1174.47 181.686L1175.17 180.141C1154.12 170.595 1137.35 162.108 1122.57 154.619C1103.61 145.019 1087.24 136.729 1068.26 129.449C1033.14 116.01 991.038 105.129 968.147 103.591C944.01 101.984 938.469 104.16 938.42 104.189L939.071 105.755C939.071 105.755 944.924 103.751 968.04 105.29C990.786 106.821 1032.68 117.647 1067.66 131.041C1086.56 138.291 1102.9 146.557 1121.82 156.137C1136.62 163.633 1153.4 172.126 1174.47 181.686Z" fill="#F5F5F5"/>
<path d="M1140.12 169.153L1140.76 167.582C1128.16 162.489 1116.61 157.765 1106.41 153.583C1071.22 139.186 1045.8 128.775 1018.97 120.403C984.321 109.817 942.044 109.016 922.084 111.05L922.255 112.731C942.077 110.71 984.059 111.512 1018.47 122.02C1045.22 130.369 1070.62 140.767 1105.77 155.154C1115.97 159.325 1127.52 164.061 1140.12 169.153Z" fill="#F5F5F5"/>
<path d="M1080.63 149.963L1081.16 148.349C1070.51 144.849 1061.27 141.762 1053.13 139.05C1016.67 126.889 1001.59 121.859 978.724 118.995C951.493 115.558 935.169 115.717 897.744 123.493L898.087 125.158C935.28 117.431 951.496 117.264 978.518 120.682C1001.22 123.522 1016.26 128.546 1052.6 140.664C1060.74 143.387 1069.98 146.463 1080.64 149.97L1080.63 149.963Z" fill="#F5F5F5"/>
<path d="M754.005 223.949C765.214 219.884 776.869 213.583 790.125 204.733L789.186 203.319C755.491 225.793 732.256 231.706 700.363 225.906C688.972 223.683 677.94 217.975 666.244 211.94C644.549 200.722 619.967 188.015 582.005 189.703C528.497 191.6 511.118 203.07 508.188 205.354L508.116 205.416L508.544 206.007L508.874 206.919C509.01 206.869 509.093 206.804 509.221 206.698C512.088 204.473 529.083 193.283 582.075 191.397C619.582 189.732 643.96 202.335 665.462 213.444C677.262 219.537 688.397 225.302 700.044 227.575C719.855 231.177 736.363 230.347 753.994 223.953L754.005 223.949Z" fill="#F5F5F5"/>
<path d="M758.569 219.342C769.465 215.391 780.804 209.56 792.987 201.739L792.069 200.318C761.286 220.1 735.906 227.028 709.782 222.786C690.824 219.574 678.792 211.858 666.053 203.699C650.948 194.016 635.324 184.011 606.925 181.08C561.972 176.105 532.416 182.011 511.099 200.208L512.194 201.495C533.128 183.614 562.282 177.842 606.74 182.76C634.746 185.655 650.188 195.548 665.135 205.123C678.017 213.384 690.196 221.177 709.498 224.454C725.684 227.084 741.577 225.505 758.559 219.346L758.569 219.342Z" fill="#F5F5F5"/>
<path d="M765.282 213.731C775.287 210.102 785.599 205.13 796.137 198.855L795.267 197.404C754.513 221.69 718.603 225.929 688.553 209.978C674.982 202.856 665.334 196.812 656.826 191.493C638.931 180.296 628.122 173.535 602.431 170.323C566.033 165.86 541.612 167.817 516.866 190.874L518.026 192.113C542.284 169.506 566.336 167.611 602.225 172.01C627.545 175.179 638.232 181.865 655.926 192.934C664.466 198.277 674.139 204.323 687.761 211.486C702.968 219.556 719.96 222.545 738.245 220.371C746.96 219.332 755.983 217.115 765.276 213.745L765.282 213.731Z" fill="#F5F5F5"/>
<path d="M773.847 207.863C780.782 205.348 788.245 202.096 796.498 197.953L795.736 196.44C760.996 213.875 740.421 215.421 714.605 212.159C699.825 210.169 687.353 200.621 674.155 190.507C665.273 183.7 656.082 176.661 645.763 171.678C615.035 156.636 584.212 157.347 572.386 158.34C551.083 160.198 536.976 167.815 528.886 173.879L529.898 175.231C537.808 169.292 551.619 161.841 572.522 160.022C584.207 159.032 614.667 158.334 645.02 173.192C655.185 178.112 664.308 185.093 673.121 191.842C686.514 202.099 699.151 211.777 714.391 213.825C734.403 216.347 751.298 216.028 773.854 207.849L773.847 207.863Z" fill="#F5F5F5"/>
<path d="M792.782 198.495C794.312 197.94 795.852 197.381 797.444 196.769L796.845 195.184C744.289 215.038 726.247 208.992 710.329 203.669C701.31 200.373 692.747 192.549 682.844 183.48C667.602 169.531 650.321 153.714 625.41 149.353C584.197 141.551 573.798 143.177 547.263 153.523L547.882 155.1C574.474 144.745 584.055 143.25 625.115 151.024C649.544 155.3 666.631 170.938 681.71 184.733C691.75 193.918 700.425 201.855 709.782 205.266C725.501 210.531 743.24 216.461 792.793 198.491L792.782 198.495Z" fill="#F5F5F5"/>
<path d="M797.599 195.563C797.997 195.418 798.405 195.27 798.804 195.126L798.226 193.533C770.461 203.887 739.084 205.818 718.311 198.451C707.219 194.342 698.085 185.041 688.412 175.202C676.326 162.894 662.629 148.954 641.793 141.313C624.966 134.957 608.144 132.665 591.797 134.527C579.32 135.947 567.4 139.688 556.364 145.67L557.175 147.154C575.027 137.479 604.108 128.889 641.196 142.905C661.677 150.414 675.24 164.213 687.195 176.39C697.003 186.37 706.267 195.801 717.729 200.049C738.57 207.439 769.788 205.66 797.592 195.577L797.599 195.563Z" fill="#F5F5F5"/>
<path d="M798.752 193.71C799.297 193.512 799.842 193.315 800.383 193.107L799.774 191.526C779.537 199.268 757.65 200.104 734.652 194.054C721.22 190.521 708.635 182.555 698.226 171.014C696.356 168.93 694.688 167.01 693.077 165.153C686.277 157.318 680.911 151.12 668.276 142.33C650.505 130.034 626.351 122.138 612.105 123.974L612.321 125.65C626.206 123.862 649.842 131.638 667.312 143.723C679.764 152.401 685.078 158.523 691.799 166.268C693.423 168.133 695.095 170.063 696.98 172.154C707.606 183.936 720.478 192.07 734.226 195.69C756.951 201.674 778.648 201.001 798.752 193.71Z" fill="#F5F5F5"/>
<path d="M801.106 192.062L800.644 190.428C772.977 198.339 746.37 191.227 730.704 181.925C721.458 176.304 713.83 169.066 705.751 161.398C693.42 149.689 680.674 137.585 661.437 131.25L660.908 132.864C679.782 139.082 692.398 151.055 704.585 162.627C712.726 170.367 720.422 177.664 729.832 183.379C745.813 192.863 772.911 200.118 801.106 192.062Z" fill="#F5F5F5"/>
<path d="M801.855 190.89L801.649 189.21C779.351 192.021 770.991 189.529 755.665 184.074C735.274 176.747 720.581 163.784 711.845 154.209L710.588 155.353C719.447 165.073 734.365 178.226 755.083 185.672C771.836 191.629 780.208 193.631 801.855 190.89Z" fill="#F5F5F5"/>
<path d="M802.61 189.703L802.566 188.012C772.913 188.879 759.921 180.611 751.336 175.142C740.926 168.438 732.763 161.619 731.869 160.852L731.375 160.439L730.82 160.77L731.29 161.477L730.743 162.126C731.669 162.916 739.905 169.804 750.407 176.569C759.179 182.16 772.422 190.598 802.6 189.707L802.61 189.703Z" fill="#F5F5F5"/>
<path d="M803.355 188.52L803.451 186.826C778.022 185.414 763.79 174.869 754.223 165.844L753.056 167.074C762.826 176.297 777.378 187.07 803.351 188.51L803.355 188.52Z" fill="#F5F5F5"/>
<path d="M1060.25 286.207L1060.36 284.519C1010.07 281.325 982.175 281.911 957.432 286.675C930.807 291.803 907.785 302.096 875.713 317.212C854.776 327.01 829.843 329.876 799.491 325.971C775.034 322.796 753.58 315.937 742.969 312.139C727.989 306.595 715.076 299.424 700.141 291.125C681.035 280.509 659.389 268.48 627.757 256.99L627.175 258.588C658.672 270.032 680.267 282.021 699.316 292.609C714.322 300.942 727.283 308.143 742.386 313.737C753.069 317.568 774.655 324.463 799.27 327.651C829.948 331.604 855.193 328.684 876.437 318.751C941.946 287.87 963.09 280.048 1060.26 286.213L1060.25 286.207Z" fill="#F5F5F5"/>
<path d="M1042.46 282.773L1042.65 281.09C1025.42 279.137 1006.83 277.286 985.59 277.993C959.808 278.843 936.676 283.309 914.861 291.635C865.37 310.496 846.67 316.59 814.552 316.609C782.595 316.581 760.598 308.223 731.197 292.819C692.675 272.661 661.685 260.559 639.079 256.832L638.809 258.506C661.238 262.203 692.064 274.246 730.415 294.323C760.063 309.852 782.248 318.271 814.561 318.3C846.965 318.285 865.759 312.156 915.47 293.216C965.623 274.056 1013.74 279.509 1042.47 282.769L1042.46 282.773Z" fill="#F5F5F5"/>
<path d="M1025.41 278.037L1025.61 276.354C1023.74 276.142 1021.86 275.913 1019.95 275.691C991.537 272.327 959.333 268.513 913.815 284.404C859.462 303.487 813.459 309.181 777.117 301.344C760.662 297.449 741.476 288.214 722.928 279.269C695.166 265.901 668.94 253.269 649.714 256.116L649.965 257.791C668.672 255.014 695.887 268.118 722.189 280.794C740.818 289.768 760.094 299.053 776.74 302.986C813.416 310.892 859.707 305.176 914.368 285.993C959.515 270.225 991.511 274.02 1019.74 277.367C1021.65 277.589 1023.53 277.818 1025.4 278.03L1025.41 278.037Z" fill="#F5F5F5"/>
<path d="M1011.18 273.157L1011.46 271.478C979.092 266.089 944.37 267.882 913.697 276.528C881.242 286.01 816.124 297.736 779.513 288.893C765.952 285.561 751.126 279.783 735.434 273.679C710.162 263.842 684.02 253.668 663.482 254.466L663.551 256.16C683.737 255.371 709.711 265.475 734.819 275.253C750.568 281.384 765.448 287.178 779.112 290.532C816.049 299.458 881.55 287.677 914.166 278.148C944.604 269.575 979.059 267.796 1011.19 273.142L1011.18 273.157Z" fill="#F5F5F5"/>
<path d="M1002.62 269.873L1002.95 268.211C976.081 262.819 959.482 264.346 938.469 266.288C935.761 266.535 932.987 266.794 930.123 267.038C922.739 267.725 913.263 269.774 902.306 272.148C876.355 277.766 840.828 285.446 805.684 280.421C778.443 276.562 757.056 269.986 738.193 264.191C717.421 257.807 699.488 252.29 679.013 251.726L678.962 253.416C699.201 253.983 717.038 259.463 737.689 265.808C756.62 271.626 778.06 278.218 805.439 282.099C840.884 287.168 876.586 279.448 902.659 273.81C913.575 271.451 922.994 269.411 930.273 268.727C933.147 268.479 935.922 268.219 938.63 267.972C959.505 266.044 975.988 264.524 1002.62 269.873Z" fill="#F5F5F5"/>
<path d="M987.128 267.359L987.539 265.716C967.868 260.83 943.511 248.516 922.009 237.667C914.464 233.86 907.337 230.257 900.844 227.194L899.883 226.701C881.566 217.281 832.934 192.255 782.588 211.995L783.208 213.572C832.827 194.119 880.978 218.893 899.105 228.216L900.095 228.722C906.587 231.785 913.7 235.382 921.241 239.178C942.818 250.071 967.271 262.422 987.128 267.359Z" fill="#F5F5F5"/>
<path d="M977.057 266.459L977.508 264.826C948.158 256.657 921.802 244.452 900.626 234.634L898.107 233.473C876.829 223.112 841.258 205.796 773.466 216.749L773.739 218.417C841.005 207.548 876.276 224.724 897.35 234.981L897.407 235.008L899.926 236.168C921.155 246.002 947.576 258.255 977.068 266.456L977.057 266.459Z" fill="#F5F5F5"/>
<path d="M971.919 266.248L972.253 264.586C953.847 260.936 927.408 251.771 901.847 242.904C890.716 239.046 879.218 235.06 868.765 231.668C834.101 220.448 781.493 218.781 751.497 227.952L751.991 229.575C781.707 220.482 833.864 222.146 868.247 233.278C878.686 236.664 890.183 240.65 901.301 244.501C926.925 253.381 953.421 262.572 971.929 266.245L971.919 266.248Z" fill="#F5F5F5"/>
<path d="M964.201 266.214L964.525 264.556C928.454 257.532 886.215 245.397 864.245 238.783C841.207 231.74 799.165 225.673 729.716 236.764L729.979 238.435C799.115 227.398 840.888 233.408 863.756 240.407C885.764 247.03 928.067 259.178 964.201 266.214Z" fill="#F5F5F5"/>
<path d="M955.796 266.571L955.942 264.883C935.593 263.064 916.859 258.833 897.018 254.364C876.606 249.758 855.496 244.991 831.953 242.896C805.533 240.517 766.513 239.612 722.083 240.362C720.892 240.379 720.022 240.398 719.912 240.391L719.895 241.227L719.078 241.523C719.218 241.907 720.234 242.084 722.127 242.053C766.49 241.316 805.45 242.218 831.817 244.581C855.251 246.668 876.308 251.419 896.666 256.009C916.564 260.505 935.348 264.741 955.817 266.564L955.796 266.571Z" fill="#F5F5F5"/>
<path d="M944.129 267.448L944.339 265.771C927.744 263.681 911.524 266.09 892.745 268.894C883.443 270.276 873.839 271.708 862.936 272.829C830.087 276.159 785.713 267.583 771.385 263.996C767.274 262.926 762.706 261.607 757.872 260.207C738.485 254.602 714.359 247.632 692.507 248.599L692.586 250.289C714.161 249.34 738.141 256.267 757.407 261.834C762.256 263.24 766.838 264.566 770.973 265.639C785.394 269.252 830.023 277.878 863.121 274.516C874.059 273.394 883.684 271.955 893.007 270.565C911.664 267.782 927.771 265.39 944.133 267.458L944.129 267.448Z" fill="#F5F5F5"/>
<path d="M935.661 266.749L935.846 265.07C913.668 262.587 899.91 263.581 880.878 264.971L878.511 265.142C856.407 266.756 822.463 265.007 799.556 261.07C788.057 259.076 776.526 256.797 765.385 254.578C736.171 248.779 710.945 243.773 699.494 246.717L699.911 248.356C710.983 245.514 736.043 250.485 765.051 256.24C776.203 258.455 787.738 260.744 799.261 262.741C822.282 266.697 856.41 268.463 878.625 266.831L880.993 266.66C899.933 265.279 913.62 264.287 935.651 266.753L935.661 266.749Z" fill="#F5F5F5"/>
<path d="M940.492 267.06L940.762 265.385C894.755 257.994 858.07 253.92 831.748 253.248C817.461 252.881 791.55 250.175 766.498 247.548C744.162 245.217 723.065 243.005 712.744 242.753L712.707 244.45C722.958 244.704 744.026 246.902 766.328 249.234C791.415 251.86 817.36 254.565 831.707 254.934C857.956 255.597 894.555 259.667 940.498 267.046L940.492 267.06Z" fill="#F5F5F5"/>
<path d="M745.686 230.463L745.193 228.84C698.097 243.323 638.077 258.938 591.542 251.169L591.257 252.837C638.147 260.667 698.42 244.996 745.697 230.459L745.686 230.463Z" fill="#F5F5F5"/>
<path d="M734.436 232.848L734.093 231.182C668.706 244.748 663.771 245.162 636.392 247.493L635.495 247.569C607.708 249.823 567.092 247.98 566.703 247.955L566.655 248.803L565.944 249.262C566.123 249.537 568.62 249.754 573.435 249.912C577.323 250.043 583.444 250.218 590.543 250.311C603.065 250.487 621.053 250.436 635.634 249.261L636.531 249.185C663.992 246.849 668.937 246.43 734.436 232.848Z" fill="#F5F5F5"/>
<path d="M722.211 233.915L721.959 232.24C718.335 232.772 714.195 233.419 709.417 234.168C680.93 238.608 633.241 246.028 604.061 244.08C571.935 242.051 545.405 246.101 527.859 248.778L524.749 249.254L525 250.929L528.111 250.452C545.59 247.788 572.008 243.756 603.95 245.768C633.314 247.732 681.115 240.295 709.679 235.839C714.462 235.101 718.601 234.453 722.211 233.915Z" fill="#F5F5F5"/>
<path d="M715.074 233.848L714.868 232.168C654.362 239.744 586.581 239.419 567.252 239.139C529.469 238.604 504.678 250.819 500.093 253.276L499.985 253.339L500.341 254.027L500.538 254.928C500.661 254.907 500.716 254.864 500.897 254.774C505.413 252.354 529.862 240.31 567.229 240.842C586.594 241.121 654.47 241.447 715.088 233.854L715.074 233.848Z" fill="#F5F5F5"/>
<path d="M708.355 233.332L708.216 231.64C675.04 234.461 616.189 235.095 589.397 232.933C543.134 229.511 509.143 237.274 488.341 256.009L489.473 257.269C509.921 238.865 543.49 231.243 589.265 234.629C616.121 236.803 675.113 236.166 708.355 233.332Z" fill="#F5F5F5"/>
<path d="M702.88 232.615L702.811 230.922C671.685 232.074 631.651 232.818 598.077 228.232C563.778 223.577 542.455 224.174 519.413 230.456C500.354 235.625 486.76 243.969 478.713 250.053C470.07 256.589 465.543 262.214 465.45 262.579L467.097 263.001L466.274 262.79L466.97 263.273C467.12 263.064 483.783 241.872 519.851 232.087C542.659 225.878 563.791 225.28 597.842 229.906C631.544 234.517 671.673 233.774 702.865 232.609L702.88 232.615Z" fill="#F5F5F5"/>
<path d="M725.557 240.134C743.691 233.557 761.405 225.462 778.015 216.119L777.183 214.643C721.132 246.172 651.567 262.829 608.003 255.145L607.708 256.817C628.844 260.544 657.113 258.672 687.311 251.562C700.099 248.548 712.933 244.712 725.567 240.13L725.557 240.134Z" fill="#F5F5F5"/>
<path d="M697.294 231.595L697.295 229.899C663.762 229.969 634.628 226.843 606.457 223.818C596.258 222.728 585.699 221.59 575.186 220.649C535.766 217.069 513.945 221.521 477.915 240.467C454.651 252.674 443.725 268.929 443.581 269.775L444.413 269.912L445.161 270.305C445.248 270.154 455.27 254.251 478.701 241.948C514.393 223.184 535.994 218.777 575.033 222.317C585.534 223.262 596.08 224.393 606.278 225.483C634.496 228.503 663.668 231.639 697.296 231.57L697.294 231.595Z" fill="#F5F5F5"/>
<path d="M693.797 230.812L693.894 229.117C671.949 227.901 618.971 220.963 601.592 218.411C597.122 217.756 592.598 216.884 587.797 215.969C571.071 212.765 552.116 209.137 528.403 213.504C498.153 219.033 468.752 234.615 456.367 243.742C447.955 249.933 440.271 258.292 435.303 264.207C432.472 267.58 430.219 270.519 428.833 272.385C427.049 274.787 426.219 276.159 426.343 276.501L427.928 275.902L427.131 276.191L427.862 276.637C427.974 276.455 441.521 256.772 457.368 245.097C469.622 236.066 498.739 220.647 528.707 215.16C552.112 210.857 570.9 214.451 587.474 217.627C592.289 218.549 596.834 219.413 601.343 220.078C618.747 222.633 671.803 229.589 693.804 230.798L693.797 230.812Z" fill="#F5F5F5"/>
<path d="M689.304 229.668L689.574 227.993C681.888 226.738 674.585 225.558 667.611 224.436C639.127 219.865 616.634 216.251 595.349 211.133C573.627 205.923 549.172 202.096 517.623 209.306C480.947 217.675 451.321 238.424 445.39 243.514C438.917 249.134 413.86 273.951 407.635 283.131L409.035 284.082C415.189 274.998 440.057 250.38 446.496 244.797C451.998 240.063 482.022 219.17 517.997 210.96C549.206 203.826 573.425 207.62 594.951 212.782C616.3 217.913 638.818 221.53 667.341 226.11C674.315 227.232 681.614 228.402 689.301 229.657L689.304 229.668Z" fill="#F5F5F5"/>
<path d="M682.243 227.487L682.576 225.825C663.649 222.044 624.624 213.769 612.323 209.529C599.004 205.065 551.872 194.408 525.781 201.404L526.223 203.045C551.945 196.147 598.596 206.719 611.78 211.136C624.152 215.41 663.28 223.707 682.247 227.497L682.243 227.487Z" fill="#F5F5F5"/>
<path d="M680.742 226.976L681.193 225.343C657.826 218.963 646.151 214.52 629.718 207.974C617.254 203.023 604.819 200.147 596.591 198.247C593.527 197.545 591.114 196.973 589.71 196.534L589.206 198.151C590.667 198.617 593.111 199.177 596.214 199.889C604.393 201.783 616.753 204.65 629.103 209.548C645.604 216.118 657.318 220.57 680.766 226.979L680.742 226.976Z" fill="#F5F5F5"/>
<path d="M803.868 187.682L804.039 185.996C791.51 184.755 786.45 181.196 780.036 176.683C773.984 172.417 772.215 168.779 772.035 168.382L771.84 167.943L771.366 167.878L771.268 168.719L770.499 169.081C770.708 169.527 772.66 173.537 779.067 178.065C785.686 182.718 790.908 186.396 803.879 187.678L803.868 187.682Z" fill="#F5F5F5"/>
<path d="M804.334 186.743L804.76 185.106C798.57 183.499 790.623 178.059 787.92 174.463C785.239 170.896 784.493 169.068 784.486 169.047L783.722 169.359L782.854 169.449C782.887 169.769 783.865 171.88 786.568 175.475C789.497 179.368 797.721 185.015 804.334 186.743Z" fill="#F5F5F5"/>
<path d="M804.601 185.78L805.552 184.38C801.848 181.883 795.721 172.144 796.648 169.307L795.037 168.789C793.7 172.913 800.927 183.296 804.616 185.787L804.601 185.78Z" fill="#F5F5F5"/>
<path d="M806.202 182.675L807.502 181.587C804.613 178.13 804.475 171.115 807.242 168.416L806.058 167.21C802.707 170.488 802.784 178.58 806.202 182.675Z" fill="#F5F5F5"/>
<path d="M809.061 180.002C808.799 176.6 812.743 170.476 818.024 166.047L816.936 164.747C812.044 168.844 807.022 175.621 807.376 180.127L809.072 179.998L809.061 180.002Z" fill="#F5F5F5"/>
<path d="M510.311 361.307C513.192 360.262 515.96 359.199 518.637 358.181C527.073 354.967 542.472 345.162 558.766 334.785C579.979 321.271 604.037 305.956 618.104 301.696C620.412 301.001 622.594 300.316 624.671 299.67C645.257 293.283 655.59 290.069 685.744 296.927L686.117 295.274C655.523 288.315 644.389 291.772 624.167 298.051C622.09 298.697 619.915 299.368 617.61 300.073C603.319 304.402 579.169 319.787 557.854 333.349C541.626 343.679 526.293 353.436 518.028 356.6C499.837 363.576 477.21 372.244 443.394 366.24C418.312 361.799 399.274 351.598 380.868 341.736C375.087 338.641 369.641 335.72 364.071 333.01C349.343 325.869 330.367 326.954 326.715 327.247L326.599 327.254L326.645 328.067L326.367 328.903C326.531 328.962 326.633 328.949 326.84 328.933C330.421 328.641 348.989 327.574 363.318 334.528C368.855 337.214 374.301 340.135 380.053 343.217C398.577 353.143 417.738 363.418 443.095 367.902C472.385 373.093 493.356 367.443 510.307 361.296L510.311 361.307Z" fill="#F5F5F5"/>
<path d="M683.624 295.526L684.05 293.89C665.338 289.035 648.965 286.509 608.517 298.273C591.905 303.065 574.886 313.599 556.867 324.745C552.451 327.473 547.893 330.299 543.34 333.041C517.392 348.603 495.051 359.041 470.371 359.433C433.195 360.017 412.004 347.87 393.308 337.142C389.324 334.853 385.556 332.699 381.725 330.698C364.671 321.851 347.805 320.322 338.524 321.696L338.776 323.371C347.797 322.032 364.253 323.544 380.943 332.202C384.742 334.179 388.5 336.337 392.465 338.609C411.355 349.445 432.76 361.728 470.394 361.131C495.462 360.729 518.03 350.198 544.213 334.502C548.788 331.753 553.35 328.937 557.772 326.195C575.694 315.108 592.616 304.633 609.004 299.91C649.032 288.263 665.179 290.752 683.638 295.533L683.624 295.526Z" fill="#F5F5F5"/>
<path d="M679.996 293.333L680.34 291.667C661.105 287.69 634.763 282.259 594.478 299.666C563.596 312.964 544.712 324.34 528.057 334.375C523.407 337.176 519.02 339.822 514.655 342.33C498.514 351.692 469.79 356.525 441.973 346.272C423.858 339.6 409.855 332.137 399.62 326.697C394.286 323.855 390.071 321.614 386.603 320.157C377.172 316.215 363.368 312.082 351.175 314.773L351.539 316.431C363.305 313.836 376.743 317.876 385.949 321.721C389.336 323.149 393.522 325.376 398.824 328.195C409.095 333.669 423.166 341.155 441.39 347.87C454.28 352.62 468.42 354.545 482.281 353.442C494.688 352.451 506.486 349.026 515.497 343.802C519.862 341.294 524.27 338.641 528.921 335.84C545.527 325.835 564.347 314.481 595.128 301.232C634.923 284.039 660.97 289.41 679.985 293.337L679.996 293.333Z" fill="#F5F5F5"/>
<path d="M676.08 290.936L676.428 289.281C662.174 286.259 625.837 280.363 596.345 290.988L596.146 291.06C571.809 299.886 535.661 319.811 520.197 328.324C518.792 329.093 517.569 329.774 516.53 330.341C490.953 344.441 466.035 342.738 449.636 338.834C437.365 335.887 423.201 327.688 411.829 321.108C405.465 317.418 399.974 314.241 395.787 312.499C383.865 307.541 376.383 304.92 361.281 308.548L361.676 310.194C376.299 306.681 383.212 309.106 395.133 314.064C399.21 315.762 404.658 318.919 410.972 322.569C422.437 329.21 436.719 337.473 449.238 340.484C465.925 344.461 491.288 346.181 517.341 331.825C518.37 331.262 519.603 330.578 521.007 329.808C536.479 321.281 572.71 301.325 596.922 292.58C626.827 281.818 665.073 288.598 676.08 290.936Z" fill="#F5F5F5"/>
<path d="M673.912 289.6L674.271 287.941C650.117 282.725 629.267 278.218 598.927 285.132C578.059 289.89 555.634 300.654 537.6 309.304C530.39 312.761 524.151 315.758 519.087 317.844C500.161 325.703 478.136 333.679 456.173 328.652C442.98 325.613 430.498 317.704 419.489 310.72C411.639 305.743 404.853 301.447 399.394 299.989C386.151 296.423 378.74 298.541 372.28 301.026L372.889 302.607C379.091 300.228 386.201 298.195 398.957 301.629C404.169 303.023 410.847 307.251 418.579 312.164C429.706 319.212 442.302 327.21 455.779 330.312C478.221 335.45 500.547 327.389 519.717 319.417C524.819 317.306 531.072 314.315 538.31 310.837C556.264 302.228 578.598 291.508 599.281 286.794C629.25 279.967 649.943 284.435 673.891 289.608L673.912 289.6Z" fill="#F5F5F5"/>
<path d="M671.197 287.93L671.486 287.126L671.697 286.302C647.056 278.761 619.124 270.221 585.191 278.603C565.023 283.558 546.609 292.536 530.354 300.47C519.598 305.721 509.434 310.676 500.735 313.392C475.066 321.421 455.467 319.839 439.068 308.42C423.446 297.573 406.698 287.869 390.047 290.363L390.299 292.038C406.363 289.626 422.765 299.159 438.1 309.803C454.968 321.538 475.024 323.202 501.235 315.001C510.05 312.243 520.273 307.255 531.091 301.98C547.266 294.087 565.596 285.14 585.583 280.239C619.071 271.971 646.761 280.433 671.189 287.909L671.197 287.93Z" fill="#F5F5F5"/>
<path d="M668.196 286.031L668.864 284.473C649.959 276.405 632.355 269.702 608.246 269.317C579.659 268.874 554.702 278.896 532.676 287.75C530.649 288.568 528.643 289.378 526.651 290.195C507.823 297.865 490.048 305.105 470.042 305.639C458.527 305.856 450.288 300.428 441.575 294.673C431.477 288.01 421.039 281.127 405.274 283.975L405.572 285.646C420.669 282.921 430.372 289.312 440.642 296.09C449.194 301.725 458.043 307.561 470.09 307.341C490.402 306.802 508.331 299.494 527.302 291.761C529.294 290.944 531.3 290.134 533.316 289.319C555.2 280.53 579.989 270.568 608.231 271.006C632.074 271.38 648.809 277.746 668.217 286.023L668.196 286.031Z" fill="#F5F5F5"/>
<path d="M662.77 282.51L663.399 280.943C660.567 279.8 657.852 278.687 655.222 277.614C636.799 270.058 622.249 264.097 602.727 263.969C581.805 263.84 565.066 267.172 543.043 275.87C539.972 277.078 536.993 278.277 534.118 279.438C517.419 286.146 504.225 291.441 491.63 292.832L489.694 293.048C476.074 294.585 467.863 295.512 454.821 289.36C450.57 287.345 447.136 285.2 444.111 283.298C437.316 279.041 431.948 275.677 422.443 277.121L422.694 278.796C431.581 277.446 436.459 280.502 443.211 284.739C446.279 286.661 449.749 288.84 454.096 290.891C467.581 297.25 475.974 296.304 489.889 294.731L491.816 294.519C504.635 293.094 517.923 287.765 534.748 281.012C537.627 279.861 540.595 278.666 543.662 277.447C565.469 268.839 582.029 265.537 602.711 265.658C621.909 265.773 636.323 271.688 654.568 279.178C657.202 280.262 659.917 281.376 662.75 282.518L662.77 282.51Z" fill="#F5F5F5"/>
<path d="M656.372 278.465L657.054 276.913C653.231 275.23 649.785 273.67 646.445 272.143C626.303 262.982 614.141 257.459 584.672 257.395C560.022 257.349 538.984 265.464 523.629 271.4C517.546 273.749 512.304 275.768 507.798 276.975C492.588 281.057 476.376 284.566 460.04 279.039C449.917 275.609 446.912 273.534 444.93 272.154C443.792 271.37 442.891 270.748 441.202 270.306L440.776 271.942C442.178 272.311 442.846 272.78 443.966 273.548C446.027 274.981 449.143 277.135 459.497 280.646C476.281 286.331 492.777 282.755 508.24 278.617C512.822 277.394 518.116 275.355 524.241 272.992C539.475 267.112 560.335 259.061 584.674 259.101C613.787 259.164 625.814 264.642 645.753 273.698C649.099 275.211 652.553 276.792 656.386 278.471L656.372 278.465Z" fill="#F5F5F5"/>
<path d="M638.587 268.746L639.269 267.194C625.832 261.292 600.224 251.446 579.765 251.872C558.533 252.294 535.655 255.955 520.065 261.443C500.969 268.179 488.987 270.9 480.007 270.553C470.052 270.168 454.904 265.728 454.759 265.686L454.509 266.5L453.735 266.851C453.852 267.109 454.887 267.5 456.84 268.025C458.299 268.421 460.603 269.02 463.252 269.624C467.947 270.706 474.641 272.037 479.92 272.244C489.131 272.602 501.302 269.848 520.611 263.047C536.044 257.616 558.718 253.981 579.777 253.575C599.91 253.161 625.257 262.911 638.566 268.753L638.587 268.746Z" fill="#F5F5F5"/>
<path d="M605.89 256.314L606.248 254.655C583.622 249.762 578.24 249.236 561.935 250.301C546.909 251.293 524.196 252.797 508.371 256.687C492.602 260.568 478.743 261.872 473.089 260.01L472.561 261.625C478.602 263.606 492.476 262.345 508.777 258.329C524.452 254.482 547.083 252.984 562.05 251.99C578.319 250.926 583.235 251.408 605.9 256.311L605.89 256.314Z" fill="#F5F5F5"/>
<path d="M316.089 329.619C329.917 324.604 343.488 318.094 357.001 310.017C380.332 296.067 401.541 278.715 422.056 261.934C430.905 254.694 440.055 247.204 449.328 240.023L448.285 238.683C439.005 245.877 429.845 253.372 420.974 260.619C378.413 295.448 338.218 328.339 276.213 338.153C243.117 343.387 205.278 329.525 179.364 316.969C161.536 308.439 145.939 298.708 132.185 290.135C122.323 283.992 113.009 278.182 104.603 273.929C98.5391 270.936 92.5267 267.628 86.7179 264.424C64.1956 252.037 40.8901 239.222 9.38729 241.59L9.51246 243.276C40.5192 240.945 63.5887 253.632 85.9036 265.905C91.7371 269.111 97.7638 272.426 103.846 275.436C112.187 279.642 121.462 285.442 131.292 291.562C145.093 300.165 160.732 309.916 178.635 318.49C204.764 331.146 242.951 345.118 276.485 339.821C290.026 337.672 303.178 334.289 316.095 329.605L316.089 329.619Z" fill="#F5F5F5"/>
<path d="M305.139 328.778C360.841 308.577 379.734 293.795 413.992 266.992C424.86 258.487 437.189 248.847 452.736 237.424L451.731 236.058C436.163 247.489 423.827 257.143 412.949 265.652C378.828 292.345 360.008 307.065 304.568 327.171L304.39 327.235C262.449 342.303 219.331 329.051 197.357 319.809C174.013 310.126 158.586 297.951 149.367 290.673C146.794 288.643 144.753 287.036 143.192 286.001C138.222 283.05 130.191 277.641 120.89 271.377C100.752 257.817 75.6903 240.945 63.396 236.561C44.6582 230.72 20.6617 229.761 17.9874 229.676C18.0226 229.675 18.1997 229.705 18.3719 229.821L17.4214 231.221C17.626 231.36 17.806 231.366 17.9259 231.369C20.5793 231.462 44.3607 232.416 62.8528 238.168C74.9054 242.475 99.8698 259.275 119.929 272.781C129.259 279.058 137.308 284.484 142.278 287.435C143.745 288.409 145.758 290.002 148.309 292.005C157.592 299.331 173.135 311.594 196.693 321.377C213.339 328.38 231.016 333.029 247.815 334.832C268.495 337.04 287.729 335.032 304.96 328.842L305.139 328.778Z" fill="#F5F5F5"/>
<path d="M322.495 317.244C336.721 312.084 347.975 306.996 361.654 299.083C381.329 287.669 406.979 269.784 447.2 241.542L446.223 240.154C406.04 268.37 380.417 286.233 360.801 297.615C341.427 308.813 326.931 314.343 301.741 322.482C273.608 331.298 245.637 327.715 227.127 323.154C203.216 317.269 186.493 307.994 180.374 303.445L180.324 303.404C170.91 297.417 156.323 284.914 140.889 271.675C127.853 260.506 114.377 248.94 103.869 241.276C81.318 225.64 61.4669 213.754 28.6534 214.534L28.6977 216.225C61.0779 215.459 79.8757 226.696 102.886 242.652C113.319 250.272 126.77 261.8 139.777 272.956C155.244 286.219 169.866 298.756 179.377 304.814C187.718 311.011 205.575 319.59 226.7 324.791C245.42 329.405 273.724 333.022 302.227 324.084C309.792 321.637 316.39 319.434 322.456 317.234L322.495 317.244Z" fill="#F5F5F5"/>
<path d="M320.545 313.731C325.961 311.767 331.292 309.632 336.557 307.414C368.272 294.289 391.788 278.364 427.387 254.275C436.268 248.269 445.451 242.046 455.804 235.162L454.865 233.748C444.501 240.636 435.314 246.848 426.437 252.865C390.925 276.899 367.474 292.776 335.902 305.838C299.643 321.109 260.003 332.32 215.767 311.117C184.16 295.611 166.113 276.966 148.667 258.933C142.979 253.053 137.088 246.975 130.832 241.1C107.033 218.72 80.8688 197.009 45.8848 198.636L45.9643 200.326C80.2865 198.738 106.138 220.207 129.68 242.336C135.91 248.172 141.783 254.234 147.457 260.106C165.011 278.243 183.156 296.995 215.038 312.638C253.433 331.04 288.333 325.389 320.548 313.706L320.545 313.731Z" fill="#F5F5F5"/>
<path d="M329.178 306.321C359.601 295.288 381.189 281.923 425.541 254.482C431.31 250.908 437.468 247.099 444.077 243.03L443.186 241.587C436.577 245.655 430.419 249.465 424.65 253.039C374.124 284.307 353.202 297.253 315.064 309.305C270.447 323.53 225.605 315.788 200.817 289.57C192.336 280.567 184.472 271.173 176.874 262.087C160.451 242.461 144.935 223.93 123.751 209.054C94.9828 189.022 58.855 181.154 51.9098 179.784L51.7575 179.757L51.5807 180.544L51.1496 181.317C51.2676 181.38 51.3314 181.393 51.5865 181.443C58.4823 182.806 94.3016 190.608 122.786 210.447C143.791 225.186 159.231 243.639 175.577 263.185C183.194 272.289 191.076 281.7 199.586 290.752C212.373 304.275 230.346 313.203 251.539 316.565C271.801 319.779 293.938 317.832 315.582 310.931C320.358 309.424 324.866 307.896 329.182 306.331L329.178 306.321Z" fill="#F5F5F5"/>
<path d="M332.143 301.748C355.086 293.428 379.373 279.725 418.107 257.877C424.878 254.059 432.09 249.985 439.824 245.652L438.992 244.175C431.258 248.509 424.036 252.586 417.265 256.405C352.489 292.935 328.252 306.609 283.053 310.435C260.747 312.242 239.672 306.822 222.121 294.742C209.309 285.922 198.249 273.337 192.548 261.049L192.522 260.976C180.867 240.736 147.849 204.997 132.12 191.699C113.857 177.72 80.732 164.827 58.2587 162.937L58.1125 164.626C80.3031 166.488 113.03 179.229 131.059 193.021C146.654 206.213 179.446 241.689 191.027 261.79C196.854 274.329 208.122 287.158 221.157 296.135C239.034 308.428 260.481 313.962 283.188 312.117C301.613 310.556 316.561 307.387 332.129 301.742L332.143 301.748Z" fill="#F5F5F5"/>
<path d="M1096.51 288.089L1096.39 285.832C1052.85 288.096 1016.6 274.108 986.047 260.817C971.102 254.157 956.143 246.969 941.681 240.004C923.087 231.064 905.515 222.619 888.67 215.558C857.907 202.936 837.919 198.484 819.675 200.181C801.887 201.831 786.231 209.488 764.376 220.971L765.422 222.974C809.509 199.802 827.804 193.049 887.805 217.65C904.589 224.674 922.133 233.106 940.701 242.043C955.185 249 970.151 256.209 985.135 262.878C1015.94 276.268 1052.48 290.365 1096.5 288.078L1096.51 288.089Z" fill="#F5F5F5"/>
<path d="M503.867 373.969C508.612 372.248 513.168 370.133 517.565 367.614C538.417 355.749 556.111 344.626 571.722 334.816C619.403 304.852 648.178 286.759 688.022 298.436L688.66 296.272C647.839 284.321 618.73 302.607 570.523 332.915C554.933 342.718 537.256 353.823 516.446 365.673C495.124 377.874 469.599 380.481 438.412 373.619C417.638 369.026 395.839 360.335 371.778 347.072C343.111 331.14 316.301 332.885 306.113 334.375C305.91 334.401 305.776 334.426 305.72 334.434L305.82 335.429L305.482 336.654C305.734 336.729 305.857 336.708 306.454 336.622C316.428 335.162 342.635 333.458 370.699 349.063C394.967 362.441 416.954 371.194 437.938 375.841C463.314 381.421 485.042 380.831 503.889 373.996L503.867 373.969Z" fill="#F5F5F5"/>
<path d="M1250.41 372.084C1251.68 371.621 1252.97 371.143 1254.26 370.626C1279.78 360.698 1311.15 341.698 1345.02 315.688C1416.35 261.085 1476.43 192.439 1505.89 156.388L1504.14 154.96C1474.74 190.943 1414.8 259.429 1343.65 313.898C1309.95 339.787 1278.76 358.673 1253.44 368.529C1224.86 379.666 1201.9 380.086 1183.24 369.77C1168.68 361.82 1155.59 353.946 1142.91 346.331C1121.42 333.417 1101.11 321.211 1079.48 312.414C1044.68 297.803 1006.91 291.716 957.019 292.693L957.067 294.951C1006.63 293.986 1044.12 300.01 1078.62 314.502C1100.12 323.243 1120.34 335.408 1141.76 348.269C1154.44 355.89 1167.55 363.771 1182.15 371.74C1200.57 381.919 1222.93 382.036 1250.4 372.074L1250.41 372.084Z" fill="#F5F5F5"/>
<path d="M1201.91 265.785C1245.56 249.953 1288.16 225.379 1328.6 192.682L1327.18 190.921C1228.52 270.69 1141.19 283.716 1084.07 286.578C1065.54 287.704 1047.81 287.871 1030.67 288.031C984.299 288.454 944.248 288.825 913.12 308.341C871.485 333.895 832.917 342.832 791.776 336.438C754.353 330.782 712.462 312.581 663.713 280.793C622.554 254.183 580.517 243.847 531.406 248.262C490.637 252.141 444.543 266.119 381.927 293.568L382.831 295.635C445.21 268.284 491.096 254.357 531.603 250.502C580.182 246.126 621.765 256.354 662.475 282.676C711.505 314.647 753.687 332.968 791.433 338.661C812.22 341.885 832.173 341.205 852.41 336.569C872.853 331.881 893.096 323.272 914.312 310.255C944.903 291.089 984.658 290.719 1030.7 290.286C1047.86 290.13 1065.61 289.965 1084.2 288.83C1124.75 286.797 1161.76 279.801 1197.34 267.406C1198.87 266.876 1200.4 266.332 1201.92 265.781L1201.91 265.785Z" fill="#F5F5F5"/>
<path d="M1282.5 57.631C1320.25 43.9423 1356.36 25.1566 1387.99 2.48348L1386.68 0.649495C1336.84 36.3733 1275.8 62.3961 1214.82 73.9395C1162.79 84.1417 1116.91 83.2126 1075.07 80.6866C1040.54 78.6429 1002.16 83.6233 964.068 95.0895C929.046 105.633 898.101 120.554 876.914 137.116L878.307 138.899C917.26 108.437 999.415 78.4777 1074.93 82.9429C1116.91 85.4757 1162.97 86.4106 1215.24 76.1564C1237.84 71.8849 1260.45 65.618 1282.5 57.6205L1282.5 57.631Z" fill="#F5F5F5"/>
<path d="M821.962 165.141C824.875 164.084 827.684 162.841 830.342 161.379L829.258 159.401C808.295 170.927 777.124 168.718 760.413 166.374C737.136 163.15 712.387 155.542 697.376 146.998C683.071 138.115 649.754 123.158 615.89 123.526C596.14 124.014 578.638 129.686 562.372 140.86C542.623 154.423 524.466 176.039 506.847 206.919L508.805 208.034C540.654 152.197 573.687 126.823 615.924 125.778C649.26 125.424 682.074 140.172 696.207 148.939C711.727 157.773 736.184 165.298 760.087 168.613C774.986 170.702 801.199 172.671 821.952 165.144L821.962 165.141Z" fill="#F5F5F5"/>
<path d="M1331.2 191.835C1334.54 190.623 1337.89 189.337 1341.25 187.987C1397.73 165.975 1462.98 120.799 1507.45 72.877L1505.79 71.3445C1461.53 119.035 1396.61 163.998 1340.42 185.893C1295.15 204.161 1251.94 209.081 1224.81 199.063C1216.33 195.89 1207.85 192.576 1198.88 189.06C1183.49 183.036 1167.59 176.796 1148.22 169.939C1113.48 157.551 1073.69 145.319 1026.56 132.539C968.144 117.213 917.017 125.287 884.403 134.756C865.48 140.302 848.06 147.77 834.007 156.351C820.402 164.663 810.509 173.633 805.427 182.304C793.861 201.992 774.202 218.355 752.82 226.109C752.653 226.17 752.496 226.227 752.328 226.288C732.779 233.377 701.323 237.377 661.879 216.64C627.34 199.554 589.256 192.633 551.728 196.593C514.576 200.512 478.744 215.001 448.089 238.47C438.04 246.061 427.886 254.9 417.129 264.266C394.984 283.547 369.87 305.397 340.124 320.488C310.435 335.996 250.232 357.023 180.396 323.672C151.323 309.369 130.743 298.186 114.211 289.21C98.3403 280.586 86.8683 274.35 75.3838 269.388C52.337 259.052 31.3145 255.082 0.596764 251.345L0.320612 253.591C30.8261 257.298 51.6715 261.237 74.5032 271.438C85.9164 276.367 97.3456 282.583 113.159 291.179C129.709 300.173 150.307 311.373 179.433 325.692C207.492 339.094 236.878 345.009 266.797 343.275C292.245 341.798 317.971 334.614 341.181 322.487C371.167 307.274 396.387 285.325 418.643 265.957C429.366 256.628 439.503 247.807 449.482 240.252C511.224 192.968 592.217 184.684 660.87 218.63C701.014 239.729 733.134 235.631 753.102 228.39C753.27 228.329 753.437 228.268 753.605 228.208C775.458 220.282 795.552 203.548 807.384 183.42C817.614 165.995 848.105 147.73 885.048 136.893C917.382 127.502 968.073 119.503 1025.99 134.69C1073.04 147.451 1112.79 159.673 1147.46 172.038C1166.79 178.886 1182.68 185.109 1198.06 191.137C1207.04 194.649 1215.52 197.973 1224.01 201.153C1249.62 210.608 1289.13 207.068 1331.18 191.818L1331.2 191.835Z" fill="#F5F5F5"/>
</svg>
